<?xml version="1.0" standalone="no"?><!DOCTYPE svg PUBLIC "-//W3C//DTD SVG 1.1//EN" "http://www.w3.org/Graphics/SVG/1.1/DTD/svg11.dtd"><svg t="1598837647719" class="icon" viewBox="0 0 1024 1024" version="1.1" xmlns="http://www.w3.org/2000/svg" p-id="54325" xmlns:xlink="http://www.w3.org/1999/xlink" width="200" height="200"><defs><style type="text/css"></style></defs><path d="M511.999699 0.000698a442.181517 442.181517 0 0 0-116.363558 869.003044A289.745257 289.745257 0 0 1 511.999699 1024a289.745257 289.745257 0 0 1 116.363557-154.996258A442.181517 442.181517 0 0 0 511.999699 0.000698z m363.519752 465.454228s-67.956317-9.309085-154.06535-17.454533V802.909242a11.636356 11.636356 0 0 1-23.272711 0V445.905849c-42.356335-3.723634-87.738122-6.981813-131.025365-8.378176a7.214541 7.214541 0 0 0-7.679995 6.516359l-23.272712 222.719848 10.938175 13.498173a20.247259 20.247259 0 0 1 11.636355 5.58545l63.534503 63.76723a20.014532 20.014532 0 0 1 0 28.858162l-98.676297-54.458145a126.836277 126.836277 0 0 1-11.636355 20.712713 121.483554 121.483554 0 0 1-9.309085-15.825444l-90.065393 49.570876a20.479986 20.479986 0 0 1 0-28.858162l63.767229-63.76723a19.549078 19.549078 0 0 1 12.799991-5.58545A41.658153 41.658153 0 0 1 488.726987 674.909329l-23.272711-230.865297a7.679995 7.679995 0 0 0-7.679995-6.516359c-43.287243 1.62909-88.66903 4.887269-131.025365 8.610903V802.909242a11.636356 11.636356 0 0 1-23.272712 0V448.23312c-86.109032 8.145449-154.06535 17.221806-154.065349 17.221806A32.581796 32.581796 0 0 1 116.363605 432.407676s42.356335-16.523625 116.363557-38.167247v-10.239993a11.636356 11.636356 0 0 1 23.272711 0v3.490907l23.272711-6.516359v-20.247259a11.636356 11.636356 0 0 1 23.272712 0v-279.272537a11.636356 11.636356 0 0 1 23.272711 0v255.999826a11.636356 11.636356 0 0 1 23.272712 0v24.436347a300.916158 300.916158 0 0 1 97.279933-12.799992 7.447268 7.447268 0 0 0 7.214541-8.145449L442.181564 232.727812c0-38.865428 31.41816-139.636268 69.818135-139.636268s69.818134 100.305386 69.818134 139.636268l-11.403629 107.985381a7.447268 7.447268 0 0 0 7.447268 8.145449 344.436129 344.436129 0 0 1 97.047206 10.007266v-21.410894a11.636356 11.636356 0 0 1 23.272712 0v-255.999826a11.636356 11.636356 0 0 1 23.272711 0v279.272537a11.636356 11.636356 0 0 1 23.272712 0v20.94544l23.272711 7.447268v-5.119997a11.636356 11.636356 0 0 1 23.272711 0v11.636356c64.698138 20.479986 116.363557 35.839976 116.363557 35.839976A32.581796 32.581796 0 0 1 875.519451 465.454926z" p-id="54326"></path></svg>