<?xml version="1.0" standalone="no"?><!DOCTYPE svg PUBLIC "-//W3C//DTD SVG 1.1//EN" "http://www.w3.org/Graphics/SVG/1.1/DTD/svg11.dtd"><svg t="1601002599730" class="icon" viewBox="0 0 1024 1024" version="1.1" xmlns="http://www.w3.org/2000/svg" p-id="3252" xmlns:xlink="http://www.w3.org/1999/xlink" width="200" height="200"><defs><style type="text/css"></style></defs><path d="M855.078753 691.269943c-36.533055-28.92682-87.633896-78.555124-87.633896-154.024979l0-59.966767c0-99.758028-51.464115-170.634262-127.776152-217.33591l0-61.002352c0-74.499761-57.265238-134.918829-127.909182-134.918829-70.643943 0-127.915321 60.420091-127.915321 134.918829l0 60.82839c-76.470649 46.647413-128.048351 117.627001-128.048351 217.509872l0 59.966767c0 75.765591-51.516304 125.316124-88.074941 154.363693-6.494924 4.329609-12.384052 9.558703-17.517979 15.531741-0.165776 0.157589-0.331551 0.310062-0.497327 0.469698 0 0 0.057305 0.01535 0.081864 0.01535-13.543458 15.924691-21.844517 36.892235-21.844517 59.962673l0.110517 93.946672c0 16.546861 12.71151 29.985942 28.423353 29.985942l254.272147 0c6.6607 51.134611 48.131207 90.586135 98.488105 90.586135 50.294476 0 91.764983-39.451524 98.404194-90.586135L867.041202 891.520733c15.685237 0 28.428469-13.440104 28.428469-29.985942l-0.110517-95.104031C894.966205 734.675522 878.94737 706.949041 855.078753 691.269943L855.078753 691.269943zM440.696024 198.939935c0-41.325198 31.868825-74.958202 71.062476-74.958202 39.168068 0 71.063499 33.631982 71.063499 74.958202l0 35.323507c-22.621207-6.90527-46.469358-10.803044-71.202669-10.803044-24.651446 0-48.37987 3.880377-70.923306 10.732435L440.696024 198.939935 440.696024 198.939935zM509.235027 952.126043c-34.534538 0-63.345724-26.13217-69.733201-60.611449l139.378397 0C572.520375 925.994895 543.734772 952.126043 509.235027 952.126043L509.235027 952.126043zM838.616826 831.54885 184.89915 831.54885l-0.110517-63.960731c0-9.280364 3.88754-15.886829 7.219425-19.811208l0.248663-0.289596c1.74883-2.036379 3.721765-3.794419 5.884011-5.229095l1.946328-1.305739 1.832741-1.445932c3.9121-3.133364 8.04728-6.251378 12.239765-9.42772 36.833907-27.933189 98.488105-95.161337 98.488105-192.840006l0-59.96165c0-115.730815 89.245603-193.851033 198.973704-193.851033 109.702518 0 198.973704 78.119195 198.973704 193.851033l0 59.96165c0 97.694019 61.622476 164.905794 98.461499 192.840006 4.077875 3.084245 8.079002 6.119371 11.908214 9.138124l1.967818 1.560542 2.080382 1.38044c8.248871 5.409197 13.270235 14.652721 13.491269 24.750707l0.110517 64.638159L838.616826 831.546803zM838.616826 831.54885" p-id="3253"></path></svg>