<?xml version="1.0" standalone="no"?><!DOCTYPE svg PUBLIC "-//W3C//DTD SVG 1.1//EN" "http://www.w3.org/Graphics/SVG/1.1/DTD/svg11.dtd"><svg t="1599119389140" class="icon" viewBox="0 0 1024 1024" version="1.1" xmlns="http://www.w3.org/2000/svg" p-id="11072" xmlns:xlink="http://www.w3.org/1999/xlink" width="200" height="200"><defs><style type="text/css"></style></defs><path d="M178.133333 322.346667V844.202667h669.866667V322.346667H178.133333z m-11.733333-59.733334h693.333333c26.496 0 48 21.461333 48 48v545.322667c0 26.496-21.504 48-48 48H166.4A48 48 0 0 1 118.4 855.936V310.613333c0-26.538667 21.504-48 48-48z" p-id="11073"></path><path d="M241.749333 129.408m32 0l478.677334 0q32 0 32 32l0 0q0 32-32 32l-478.677334 0q-32 0-32-32l0 0q0-32 32-32Z" p-id="11074"></path><path d="M375.125333 577.450667h-105.813333a25.6 25.6 0 0 1 0-51.2h121.898667a25.6 25.6 0 0 1 23.04 14.506666l48.810666 101.333334 90.325334-208.938667a25.6 25.6 0 0 1 47.146666 0.426667l62.464 151.637333h80a25.6 25.6 0 1 1 0 51.2h-97.152a25.6 25.6 0 0 1-23.68-15.872l-45.866666-111.36-88.490667 204.714667a25.6 25.6 0 0 1-46.549333 0.938666l-66.133334-137.386666z" p-id="11075"></path></svg>