<?xml version="1.0" standalone="no"?><!DOCTYPE svg PUBLIC "-//W3C//DTD SVG 1.1//EN" "http://www.w3.org/Graphics/SVG/1.1/DTD/svg11.dtd"><svg t="1591237537165" class="icon" viewBox="0 0 1024 1024" version="1.1" xmlns="http://www.w3.org/2000/svg" p-id="16362" xmlns:xlink="http://www.w3.org/1999/xlink" width="200" height="200"><defs><style type="text/css"></style></defs><path d="M0 0h1024v1024H0z" fill="#FFFFFF" p-id="16363"></path><path d="M847.04 775.168l-293.952 170.272a107.2 107.2 0 0 1-107.84 0l-294.016-170.272A112.064 112.064 0 0 1 96 678.08V350.944A112.224 112.224 0 0 1 150.144 254.4l293.824-175.2a107.424 107.424 0 0 1 110.24 0l294.112 175.232a112.064 112.064 0 0 1 54.08 96.416v327.136a112 112 0 0 1-55.36 97.152z m-28.96-432.384v-0.064a10.24 10.24 0 0 0-4.928-8.8l-309.28-183.776a9.44 9.44 0 0 0-9.664 0l-308.96 183.744a10.272 10.272 0 0 0-4.992 8.96V688c0 3.648 1.92 7.04 5.088 8.864l309.12 178.56c2.912 1.696 6.496 1.696 9.44 0l309.056-178.528c3.2-1.856 5.12-5.248 5.12-8.96V342.752z m-191.36 297.12a179.488 179.488 0 0 1-127.456 52.8c-99.168-0.352-179.232-81.504-178.976-181.216 0.224-99.744 80.736-180.48 179.904-180.352 99.168 0.128 179.456 81.056 179.456 180.8a181.696 181.696 0 0 1-52.928 127.968z m-239.68-127.68c0.128 62.56 50.656 113.216 112.864 113.12 62.24-0.096 112.576-50.88 112.576-113.376a114.016 114.016 0 0 0-33.216-80.288 112.64 112.64 0 0 0-80-33.152c-62.208 0.256-112.416 51.2-112.256 113.728z" fill="#666666" p-id="16364"></path></svg>