<?xml version="1.0" standalone="no"?><!DOCTYPE svg PUBLIC "-//W3C//DTD SVG 1.1//EN" "http://www.w3.org/Graphics/SVG/1.1/DTD/svg11.dtd"><svg t="1598837048120" class="icon" viewBox="0 0 1024 1024" version="1.1" xmlns="http://www.w3.org/2000/svg" p-id="34545" xmlns:xlink="http://www.w3.org/1999/xlink" width="200" height="200"><defs><style type="text/css"></style></defs><path d="M863.2 663.9c-12.3-59.9-67-103.3-129.9-103.3h-98.9v-24.8c74-44.6 118.8-125.7 117.3-213.1C749.6 196.1 646.5 89.1 521.9 84c-66.3-2.7-128.4 21.3-175.9 67.6S272.3 260.2 272.3 327c0 85.6 44.8 165.2 117.3 208.9v24.8h-98.9c-62.9 0-117.5 43.4-129.9 103.3-8.1 39.1 1.4 79.1 26 109.9 24.7 30.9 61.2 48.6 100.2 48.6h450c38.9 0 75.5-17.7 100.2-48.5 24.6-30.8 34.1-70.9 26-110.1z m-87.1 59.9C766.4 736 752 743 736.8 743h-450c-15.2 0-29.6-7-39.3-19.2-9.8-12.3-13.4-27.7-10.1-43.5 4.8-22.9 27.6-40.1 53.2-40.1h107c38.7 0 70.3-32.1 70.3-71.4V531c0-25.6-13.5-49.2-35.2-61.7-50.6-29-82.1-83.5-82.1-142.3 0-44.9 17.6-86.8 49.6-118 32-31.1 74.4-47 118.4-45.4 83.8 3.5 153.1 75.5 154.6 160.6 1 60-30.5 115.7-82.2 145.3-21.6 12.4-35.1 36-35.1 61.6v37.8c0 39.4 31.5 71.4 70.3 71.4h107c25.6 0 48.5 17.2 53.2 40.1 3.3 15.7-0.3 31.2-10.3 43.4zM872 944H152c-22 0-40-18-40-40s18-40 40-40h720c22 0 40 18 40 40s-18 40-40 40z" p-id="34546"></path></svg>