<?xml version="1.0" standalone="no"?><!DOCTYPE svg PUBLIC "-//W3C//DTD SVG 1.1//EN" "http://www.w3.org/Graphics/SVG/1.1/DTD/svg11.dtd"><svg t="1599443051137" class="icon" viewBox="0 0 1024 1024" version="1.1" xmlns="http://www.w3.org/2000/svg" p-id="5414" xmlns:xlink="http://www.w3.org/1999/xlink" width="200" height="200"><defs><style type="text/css"></style></defs><path d="M729.6 247.466667H326.4c-6.4-10.666667-19.2-19.2-32-19.2-21.333333 0-36.266667 17.066667-36.266667 36.266666 0 21.333333 17.066667 36.266667 36.266667 36.266667 19.2 0 34.133333-12.8 36.266667-32h398.933333c21.333333 0 42.666667 27.733333 42.666667 49.066667v6.4c0 21.333333-19.2 49.066667-42.666667 49.066666H413.866667c-4.266667-14.933333-19.2-25.6-34.133334-25.6-17.066667 0-29.866667 10.666667-34.133333 25.6h-49.066667c-36.266667 0-66.133333 27.733333-66.133333 61.866667s29.866667 61.866667 66.133333 61.866667h315.733334c4.266667 14.933333 19.2 25.6 34.133333 25.6s29.866667-10.666667 34.133333-25.6h49.066667c23.466667 0 42.666667 23.466667 42.666667 42.666666v12.8c0 19.2-19.2 42.666667-42.666667 42.666667H328.533333c-4.266667-14.933333-19.2-25.6-34.133333-25.6-21.333333 0-36.266667 17.066667-36.266667 36.266667 0 21.333333 17.066667 36.266667 36.266667 36.266666 17.066667 0 29.866667-10.666667 34.133333-25.6h398.933334c38.4 0 66.133333-36.266667 66.133333-68.266666v-12.8c0-32-27.733333-68.266667-66.133333-68.266667h-49.066667c-4.266667-14.933333-19.2-25.6-34.133333-25.6s-29.866667 10.666667-34.133334 25.6H294.4c-23.466667 0-42.666667-17.066667-42.666667-36.266667 0-21.333333 19.2-36.266667 42.666667-36.266666h49.066667c4.266667 14.933333 19.2 25.6 34.133333 25.6 17.066667 0 29.866667-10.666667 34.133333-25.6h315.733334c36.266667 0 66.133333-40.533333 66.133333-74.666667v-6.4c2.133333-25.6-27.733333-66.133333-64-66.133333z" p-id="5415"></path><path d="M906.666667 42.666667h-789.333334C76.8 42.666667 42.666667 76.8 42.666667 117.333333v550.4c0 36.266667 23.466667 76.8 55.466666 96l358.4 204.8c14.933333 8.533333 34.133333 12.8 55.466667 12.8s40.533333-4.266667 55.466667-12.8l358.4-204.8C957.866667 746.666667 981.333333 704 981.333333 667.733333V117.333333C981.333333 76.8 947.2 42.666667 906.666667 42.666667z m25.6 625.066666c0 19.2-14.933333 42.666667-29.866667 53.333334l-358.4 204.8c-14.933333 8.533333-46.933333 8.533333-61.866667 0L121.6 721.066667c-14.933333-8.533333-29.866667-34.133333-29.866667-53.333334V117.333333c0-12.8 10.666667-25.6 25.6-25.6h791.466667c12.8 0 25.6 10.666667 25.6 25.6v550.4z" p-id="5416"></path></svg>