<?xml version="1.0" standalone="no"?><!DOCTYPE svg PUBLIC "-//W3C//DTD SVG 1.1//EN" "http://www.w3.org/Graphics/SVG/1.1/DTD/svg11.dtd"><svg t="1598837079402" class="icon" viewBox="0 0 1024 1024" version="1.1" xmlns="http://www.w3.org/2000/svg" p-id="35282" xmlns:xlink="http://www.w3.org/1999/xlink" width="200" height="200"><defs><style type="text/css"></style></defs><path d="M536.859817 529.867554l267.966416 162.574421a47.92819 47.92819 0 0 1 0 81.912496l-267.935151 162.574421a47.92819 47.92819 0 0 1-49.74152 0l-267.935151-162.574421a47.92819 47.92819 0 0 1 0-81.912496l267.935151-162.574421a47.896925 47.896925 0 0 1 49.710255 0z" p-id="35283"></path><path d="M221.778084 820.313009a31.670748 31.670748 0 0 0 5.690105 4.377004l267.935151 162.574421a31.920862 31.920862 0 0 0 33.171435 0l267.935151-162.574421a31.920862 31.920862 0 0 0 5.65884-4.345739l41.612799-25.292828a63.872989 63.872989 0 0 1-30.701554 56.932311l-267.935151 162.574421a63.872989 63.872989 0 0 1-66.311605 0l-267.935151-162.574421a63.872989 63.872989 0 0 1-30.701554-56.932311l41.581534 25.230299z" p-id="35284"></path><path d="M384.227448 733.52328c0 44.113944 60.777822 79.849052 135.749641 79.849052s135.749641-35.766373 135.749641-79.849052-60.777822-79.849052-135.749641-79.849052-135.749641 35.735108-135.749641 79.849052z" p-id="35285"></path><path d="M519.91456 698.78863L341.989363 493.976124a337.998473 337.998473 0 0 1-97.700974-204.531127 252.678167 252.678167 0 0 1 71.470216-204.656184 288.194425 288.194425 0 0 1 408.311911 0 252.740696 252.740696 0 0 1 71.438952 204.687449 338.092266 338.092266 0 0 1-97.700974 204.687448l-177.893934 204.593656z m-4.345739-636.103685a207.626294 207.626294 0 1 0 207.626294 207.626294 207.876408 207.876408 0 0 0-207.626294-207.626294z" p-id="35286"></path><path d="M403.267414 194.557811h31.858333V143.784569h25.261564v50.773242h25.793057v24.698807h-26.043171v11.661588a444.265869 444.265869 0 0 1 32.577412 36.641773l-14.662962 21.885018q-8.503893-16.538821-17.91445-32.577412v135.749641h-25.01145V271.530547a356.913382 356.913382 0 0 1-27.70018 61.903337l-11.130095-28.513052a262.276311 262.276311 0 0 0 38.298782-85.789272h-31.264312z m121.086679 34.203157a222.414313 222.414313 0 0 1-29.044546 24.698807l-13.85009-21.728697a219.819375 219.819375 0 0 0 72.22056-87.696394h23.885934a210.471346 210.471346 0 0 0 73.59619 87.540073l-14.131469 21.728696a253.491039 253.491039 0 0 1-28.513052-23.63582v14.381584h-84.163527z m75.034348-8.691478a202.498947 202.498947 0 0 1-33.671664-50.491864 246.988062 246.988062 0 0 1-33.390285 50.491864zM487.806112 361.5405h93.136385a685.313712 685.313712 0 0 0 27.137422-103.9851l24.448692 6.252862a665.929838 665.929838 0 0 1-26.32455 97.763502h38.830275v25.01145H487.806112z m34.765915-96.669252a678.591885 678.591885 0 0 1 19.008701 79.004916l-22.541568 5.971484q-7.440906-39.142918-18.758587-77.379172z m40.643605-9.379293a710.60654 710.60654 0 0 1 18.19583 75.753427l-23.354441 6.252862a687.814857 687.814857 0 0 0-16.8202-75.034348z" p-id="35287"></path></svg>