<?xml version="1.0" standalone="no"?><!DOCTYPE svg PUBLIC "-//W3C//DTD SVG 1.1//EN" "http://www.w3.org/Graphics/SVG/1.1/DTD/svg11.dtd"><svg t="1598836941546" class="icon" viewBox="0 0 1024 1024" version="1.1" xmlns="http://www.w3.org/2000/svg" p-id="29986" xmlns:xlink="http://www.w3.org/1999/xlink" width="200" height="200"><defs><style type="text/css"></style></defs><path d="M904.533333 1024H102.4c-58.026667 0-102.4-44.373333-102.4-102.4V570.026667C0 518.826667 44.373333 477.866667 102.4 477.866667h221.866667c10.24 0 17.066667 6.826667 17.066666 17.066666s-6.826667 17.066667-17.066666 17.066667H102.4c-34.133333 0-68.266667 17.066667-68.266667 61.44V921.6c0 37.546667 30.72 68.266667 68.266667 68.266667h802.133333c37.546667 0 85.333333-30.72 85.333334-68.266667V580.266667c0-20.48-3.413333-68.266667-51.2-68.266667h-204.8c-10.24 0-17.066667-6.826667-17.066667-17.066667s6.826667-17.066667 17.066667-17.066666h204.8c51.2 0 85.333333 40.96 85.333333 102.4v341.333333c0 58.026667-64.853333 102.4-119.466667 102.4z" fill="" p-id="29987"></path><path d="M153.6 887.466667c-3.413333 0-10.24-3.413333-13.653333-3.413334-3.413333-6.826667-3.413333-13.653333-3.413334-20.48l68.266667-174.08c0-3.413333 3.413333-3.413333 3.413333-6.826666L866.986667 30.72c40.96-40.96 85.333333-40.96 126.293333 0 20.48 20.48 30.72 40.96 30.72 64.853333 0 20.48-10.24 44.373333-30.72 64.853334L337.92 812.373333s-3.413333 3.413333-6.826667 3.413334l-174.08 68.266666c0 3.413333 0 3.413333-3.413333 3.413334z m81.92-180.906667l-51.2 133.12 133.12-51.2L969.386667 133.12c13.653333-13.653333 20.48-27.306667 20.48-37.546667s-6.826667-27.306667-20.48-40.96c-27.306667-27.306667-51.2-27.306667-78.506667 0L235.52 706.56z" fill="" p-id="29988"></path><path d="M563.2 307.2c-3.413333 0-10.24 0-13.653333-3.413333-6.826667-6.826667-6.826667-17.066667 0-23.893334l238.933333-238.933333c6.826667-6.826667 17.066667-6.826667 23.893333 0l170.666667 170.666667c6.826667 6.826667 6.826667 17.066667 0 23.893333s-17.066667 6.826667-23.893333 0l-157.013334-157.013333-225.28 225.28c-3.413333 0-10.24 3.413333-13.653333 3.413333zM324.266667 819.2c-3.413333 0-10.24 0-13.653334-3.413333l-102.4-102.4c-6.826667-6.826667-6.826667-17.066667 0-23.893334s17.066667-6.826667 23.893334 0l102.4 102.4c6.826667 6.826667 6.826667 17.066667 0 23.893334 0 0-6.826667 3.413333-10.24 3.413333zM870.4 614.4h-238.933333c-10.24 0-17.066667-6.826667-17.066667-17.066667s6.826667-17.066667 17.066667-17.066666h238.933333c10.24 0 17.066667 6.826667 17.066667 17.066666s-6.826667 17.066667-17.066667 17.066667zM870.4 750.933333h-375.466667c-10.24 0-17.066667-6.826667-17.066666-17.066666s6.826667-17.066667 17.066666-17.066667h375.466667c10.24 0 17.066667 6.826667 17.066667 17.066667s-6.826667 17.066667-17.066667 17.066666zM870.4 887.466667h-512c-10.24 0-17.066667-6.826667-17.066667-17.066667s6.826667-17.066667 17.066667-17.066667h512c10.24 0 17.066667 6.826667 17.066667 17.066667s-6.826667 17.066667-17.066667 17.066667z" fill="" p-id="29989"></path></svg>