<?xml version="1.0" standalone="no"?><!DOCTYPE svg PUBLIC "-//W3C//DTD SVG 1.1//EN" "http://www.w3.org/Graphics/SVG/1.1/DTD/svg11.dtd"><svg t="1591858168593" class="icon" viewBox="0 0 1024 1024" version="1.1" xmlns="http://www.w3.org/2000/svg" p-id="3475" xmlns:xlink="http://www.w3.org/1999/xlink" width="200" height="200"><defs><style type="text/css"></style></defs><path d="M844.8 881.777778H526.222222v-56.888889h318.577778a26.737778 26.737778 0 0 0 28.444444-28.444445v-221.866666l-167.822222-122.311111 34.133334-45.511111 179.2 130.844444a25.884444 25.884444 0 0 1 11.377777 22.755556V796.444444a85.333333 85.333333 0 0 1-85.333333 85.333334zM497.777778 881.777778H179.2a85.333333 85.333333 0 0 1-85.333333-85.333334v-236.088888a34.986667 34.986667 0 0 1 11.377777-22.755556l164.977778-122.311111 34.133334 45.511111-153.6 113.777778V796.444444a26.737778 26.737778 0 0 0 28.444444 28.444445h318.577778z" p-id="3476"></path><path d="M662.755556 881.777778H347.022222a85.333333 85.333333 0 0 1-85.333333-85.333334V234.666667a85.333333 85.333333 0 0 1 85.333333-85.333334h318.577778a85.333333 85.333333 0 0 1 85.333333 85.333334V796.444444a88.177778 88.177778 0 0 1-88.177777 85.333334zM347.022222 206.222222a26.737778 26.737778 0 0 0-28.444444 28.444445V796.444444a26.737778 26.737778 0 0 0 28.444444 28.444445h318.577778a26.737778 26.737778 0 0 0 28.444444-28.444445V234.666667a26.737778 26.737778 0 0 0-28.444444-28.444445z" p-id="3477"></path><path d="M580.266667 382.577778h-159.288889a28.444444 28.444444 0 0 1 0-56.888889h159.288889a28.444444 28.444444 0 0 1 0 56.888889zM580.266667 550.4h-159.288889a28.444444 28.444444 0 0 1 0-56.888889h159.288889a28.444444 28.444444 0 0 1 0 56.888889zM580.266667 718.222222h-159.288889a28.444444 28.444444 0 1 1 0-56.888889h159.288889a28.444444 28.444444 0 0 1 0 56.888889z" p-id="3478"></path></svg>