<?xml version="1.0" standalone="no"?><!DOCTYPE svg PUBLIC "-//W3C//DTD SVG 1.1//EN" "http://www.w3.org/Graphics/SVG/1.1/DTD/svg11.dtd"><svg t="1591858269303" class="icon" viewBox="0 0 1024 1024" version="1.1" xmlns="http://www.w3.org/2000/svg" p-id="3754" xmlns:xlink="http://www.w3.org/1999/xlink" width="200" height="200"><defs><style type="text/css"></style></defs><path d="M320 124.256l-224 112V896h832V320H544V236.256l-224-112z m0 71.488l160 80V832H160V275.744l160-80zM224 320v64h64v-64H224z m128 0v64h64v-64h-64z m192 64h320v448H544V384zM224 448v64h64v-64H224z m128 0v64h64v-64h-64z m256 0v64h64v-64h-64z m128 0v64h64v-64h-64zM224 576v64h64v-64H224z m128 0v64h64v-64h-64z m256 0v64h64v-64h-64z m128 0v64h64v-64h-64zM224 704v64h64v-64H224z m128 0v64h64v-64h-64z m256 0v64h64v-64h-64z m128 0v64h64v-64h-64z" p-id="3755"></path></svg>