<?xml version="1.0" standalone="no"?><!DOCTYPE svg PUBLIC "-//W3C//DTD SVG 1.1//EN" "http://www.w3.org/Graphics/SVG/1.1/DTD/svg11.dtd"><svg t="1600414338854" class="icon" viewBox="0 0 1024 1024" version="1.1" xmlns="http://www.w3.org/2000/svg" p-id="4612" xmlns:xlink="http://www.w3.org/1999/xlink" width="200" height="200"><defs><style type="text/css"></style></defs><path d="M422.016 96l-5.024 26.016-19.008 94.976a318.048 318.048 0 0 0-82.976 49.024l-92.992-32-25.024-8-12.992 22.976-64 110.016-12.992 23.008 19.008 16.96 72 63.04C195.328 478.336 192 494.72 192 512c0 17.28 3.36 33.6 6.016 50.016l-72 62.976-19.008 17.024 12.992 22.976 64 110.016 12.992 22.976 25.024-8 92.992-32a318.048 318.048 0 0 0 83.008 49.024l18.976 94.976 4.992 26.016h180.032l4.992-26.016 18.976-94.976a318.048 318.048 0 0 0 83.008-49.024l93.024 32 24.96 8 13.024-22.976 64-110.016 12.992-22.976-18.976-17.024-72-62.976C828.64 545.6 832 529.216 832 512c0-17.28-3.36-33.6-6.016-50.016l72-62.976 19.008-16.992-12.992-23.04-64-109.984-12.992-22.976-25.024 8-92.992 32a318.048 318.048 0 0 0-82.976-49.024l-19.008-94.976L601.984 96z m51.968 64h76.032l16 83.008 4 18.976 17.984 6.016a256.544 256.544 0 0 1 96.992 56l14.016 12.992 17.984-5.984 81.024-28 37.984 64.992-64 56.992-15.008 12 5.024 19.008c4.096 18.24 5.984 36.864 5.984 56 0 19.136-1.888 37.76-6.016 56l-4 19.008 14.016 12 64 56.992-38.016 64.992-80.96-28-18.016-5.984-14.016 12.992a256.544 256.544 0 0 1-96.992 56l-18.016 6.016-4 18.976-16 83.008h-76l-16-83.008-3.968-18.976-18.016-6.016a256.544 256.544 0 0 1-96.992-56l-14.016-12.992-17.984 5.984-80.992 28L188 656l64-56.992 15.008-12-4.992-19.008A252.832 252.832 0 0 1 256 512c0-19.136 1.888-37.76 6.016-56l4.992-19.008-15.008-12-64-56.992 38.016-64.992 80.96 28 18.016 5.984 14.016-12.992a256.544 256.544 0 0 1 96.992-56l18.016-6.016 3.968-18.976zM512 352c-88 0-160 72-160 160s72 160 160 160 160-72 160-160-72-160-160-160z m0 64c53.376 0 96 42.624 96 96s-42.624 96-96 96-96-42.624-96-96 42.624-96 96-96z" p-id="4613"></path></svg>