<?xml version="1.0" standalone="no"?><!DOCTYPE svg PUBLIC "-//W3C//DTD SVG 1.1//EN" "http://www.w3.org/Graphics/SVG/1.1/DTD/svg11.dtd"><svg t="1600414149098" class="icon" viewBox="0 0 1024 1024" version="1.1" xmlns="http://www.w3.org/2000/svg" p-id="3672" xmlns:xlink="http://www.w3.org/1999/xlink" width="200" height="200"><defs><style type="text/css"></style></defs><path d="M390.7072 1008.7424a25.2416 25.2416 0 0 1-6.4-0.8192 509.5424 509.5424 0 0 1-131.2768-54.2208 25.6 25.6 0 0 1-9.5232-34.3552 102.5024 102.5024 0 0 0-138.9568-138.9568 25.6 25.6 0 0 1-34.3552-9.5232 510.3104 510.3104 0 0 1-54.2208-131.2768 25.6 25.6 0 0 1 16.64-30.6176 102.3488 102.3488 0 0 0 0-194.048 25.6 25.6 0 0 1-16.64-30.6176 509.5424 509.5424 0 0 1 54.2208-131.2768 25.6 25.6 0 0 1 34.3552-9.5232 102.4512 102.4512 0 0 0 138.9568-138.9568 25.6 25.6 0 0 1 9.5232-34.3552A510.3104 510.3104 0 0 1 384.3072 15.9744a25.6 25.6 0 0 1 30.6176 16.64 102.3488 102.3488 0 0 0 194.048 0 25.6 25.6 0 0 1 30.6176-16.64 509.5424 509.5424 0 0 1 131.2768 54.2208 25.6 25.6 0 0 1 9.5232 34.3552 102.5024 102.5024 0 0 0 138.9568 138.9568 25.6 25.6 0 0 1 34.3552 9.5232 510.3104 510.3104 0 0 1 54.2208 131.2768 25.6 25.6 0 0 1-16.64 30.6176 102.3488 102.3488 0 0 0 0 194.048 25.6 25.6 0 0 1 16.64 30.6176 509.5424 509.5424 0 0 1-54.2208 131.2768 25.6 25.6 0 0 1-34.3552 9.5232 102.5024 102.5024 0 0 0-138.9568 138.9568 25.6 25.6 0 0 1-9.5232 34.3552 510.3104 510.3104 0 0 1-131.2768 54.2208 25.6 25.6 0 0 1-30.6176-16.64 102.3488 102.3488 0 0 0-194.048 0 25.7024 25.7024 0 0 1-24.2688 17.4592zM512 870.4a153.6 153.6 0 0 1 135.936 82.0224 461.7728 461.7728 0 0 0 77.312-31.8464 153.8048 153.8048 0 0 1 195.3792-195.3792c12.9536-24.7808 23.6544-50.6368 31.8464-77.312a153.5488 153.5488 0 1 1 0-271.872 461.7728 461.7728 0 0 0-31.8464-77.312 153.8048 153.8048 0 0 1-195.3792-195.3792 455.7312 455.7312 0 0 0-77.312-31.8464 153.5488 153.5488 0 1 1-271.872 0c-26.624 8.192-52.5312 18.8928-77.312 31.8464a153.8048 153.8048 0 0 1-195.3792 195.3792 455.7312 455.7312 0 0 0-31.8464 77.312 153.5488 153.5488 0 1 1 0 271.872c8.192 26.624 18.8928 52.5312 31.8464 77.312a153.8048 153.8048 0 0 1 195.3792 195.3792c24.7808 12.9536 50.6368 23.6544 77.312 31.8464A153.4976 153.4976 0 0 1 512 870.4z" fill="" p-id="3673"></path><path d="M512 665.6c-84.6848 0-153.6-68.9152-153.6-153.6s68.9152-153.6 153.6-153.6 153.6 68.9152 153.6 153.6-68.9152 153.6-153.6 153.6z m0-256c-56.4736 0-102.4 45.9264-102.4 102.4s45.9264 102.4 102.4 102.4 102.4-45.9264 102.4-102.4-45.9264-102.4-102.4-102.4z" fill="" p-id="3674"></path></svg>