<?xml version="1.0" standalone="no"?><!DOCTYPE svg PUBLIC "-//W3C//DTD SVG 1.1//EN" "http://www.w3.org/Graphics/SVG/1.1/DTD/svg11.dtd"><svg t="1600414328768" class="icon" viewBox="0 0 1024 1024" version="1.1" xmlns="http://www.w3.org/2000/svg" p-id="4466" xmlns:xlink="http://www.w3.org/1999/xlink" width="200" height="200"><defs><style type="text/css"></style></defs><path d="M512.433 354.247c-87.289 0-158.303 71.015-158.303 158.303s71.015 158.303 158.303 158.303 158.303-71.015 158.303-158.303c0-87.289-71.014-158.303-158.303-158.303z m0 252.606c-51.999 0-94.303-42.304-94.303-94.303s42.304-94.303 94.303-94.303c51.999 0 94.303 42.304 94.303 94.303s-42.304 94.303-94.303 94.303z" p-id="4467"></path><path d="M927.429 426.42h-69.053c-8.516-34.55-22.03-67.223-40.382-97.626l48.787-48.787a31.997 31.997 0 0 0 0-45.254l-76.552-76.551c-12.496-12.497-32.758-12.497-45.254 0l-48.789 48.788c-30.403-18.351-63.075-31.866-97.624-40.383V97.554c0-17.673-14.327-32-32-32H458.303c-17.673 0-32 14.327-32 32v69.052c-34.548 8.517-67.221 22.032-97.624 40.383l-48.789-48.788c-12.496-12.497-32.757-12.497-45.254 0l-76.552 76.551a32.001 32.001 0 0 0 0 45.254l48.788 48.788c-18.352 30.404-31.867 63.076-40.383 97.626H97.438c-17.673 0-32 14.327-32 32v108.26c0 17.673 14.327 32 32 32h69.052c8.516 34.55 22.031 67.222 40.383 97.625l-48.788 48.789a32.001 32.001 0 0 0 0 45.255l76.552 76.551c12.497 12.496 32.758 12.497 45.255-0.001l48.788-48.787c30.402 18.351 63.075 31.865 97.625 40.382v69.052c0 17.673 14.327 32 32 32h108.259c17.673 0 32-14.327 32-32v-69.052c34.55-8.517 67.222-22.031 97.625-40.382l48.788 48.787c12.496 12.498 32.758 12.497 45.254 0.001l76.552-76.551c12.497-12.497 12.497-32.758 0.001-45.255l-48.788-48.789c18.352-30.402 31.866-63.074 40.383-97.625h69.052c17.673 0 32-14.327 32-32V458.42c-0.002-17.673-14.329-32-32.002-32z m-32 108.26H832.34c-15.626 0-28.967 11.285-31.557 26.695-7.38 43.894-24.164 84.468-49.887 120.594-9.063 12.728-7.608 30.14 3.439 41.188l44.563 44.564-31.297 31.296-44.563-44.563c-11.047-11.049-28.459-12.504-41.187-3.44-36.128 25.722-76.702 42.507-120.597 49.888-15.409 2.591-26.693 15.932-26.693 31.557v63.087h-44.259v-63.087c0-15.625-11.285-28.966-26.693-31.557-43.895-7.382-84.469-24.166-120.596-49.888-12.729-9.063-30.139-7.61-41.188 3.44l-44.563 44.563-31.297-31.296 44.563-44.564c11.048-11.048 12.502-28.46 3.44-41.188-25.724-36.128-42.508-76.701-49.887-120.594-2.59-15.41-15.931-26.695-31.557-26.695h-63.088v-44.26h63.088c15.626 0 28.967-11.285 31.557-26.695 7.379-43.893 24.163-84.467 49.887-120.596 9.062-12.728 7.607-30.14-3.44-41.188l-44.563-44.563 31.296-31.296 44.564 44.563c11.048 11.048 28.458 12.503 41.186 3.441 36.13-25.723 76.705-42.507 120.597-49.888 15.409-2.591 26.693-15.932 26.693-31.557v-63.087h44.259v63.087c0 15.625 11.284 28.966 26.693 31.557 43.892 7.38 84.467 24.165 120.598 49.888 12.728 9.061 30.139 7.607 41.186-3.441l44.563-44.563 31.297 31.296-44.563 44.563c-11.049 11.048-12.503 28.459-3.44 41.188 25.723 36.128 42.507 76.702 49.887 120.596 2.59 15.41 15.931 26.695 31.557 26.695h63.089v44.26z" p-id="4468"></path></svg>