<?xml version="1.0" standalone="no"?><!DOCTYPE svg PUBLIC "-//W3C//DTD SVG 1.1//EN" "http://www.w3.org/Graphics/SVG/1.1/DTD/svg11.dtd"><svg t="1599119313239" class="icon" viewBox="0 0 1024 1024" version="1.1" xmlns="http://www.w3.org/2000/svg" p-id="9254" xmlns:xlink="http://www.w3.org/1999/xlink" width="200" height="200"><defs><style type="text/css"></style></defs><path d="M438.186667 572.928L128.426667 408.746667a79.616 79.616 0 0 1 0-140.672l309.76-164.181334a159.232 159.232 0 0 1 149.12 0l309.76 164.181334a79.616 79.616 0 0 1 0 140.672l-309.76 164.181333a159.232 159.232 0 0 1-149.12 0z" p-id="9255"></path><path d="M512 938.666667a183.978667 183.978667 0 0 1-86.101333-21.418667L143.786667 767.744a111.36 111.36 0 0 1 0-196.821333 38.826667 38.826667 0 1 1 36.437333 68.608 33.706667 33.706667 0 0 0 0 59.52l282.026667 149.546666a106.069333 106.069333 0 0 0 99.498666 0l282.026667-149.546666a33.706667 33.706667 0 0 0 0-59.52 38.826667 38.826667 0 1 1 36.437333-68.608 111.36 111.36 0 0 1 0 196.821333l-282.112 149.504A183.978667 183.978667 0 0 1 512 938.666667z" p-id="9256"></path></svg>