<?xml version="1.0" standalone="no"?><!DOCTYPE svg PUBLIC "-//W3C//DTD SVG 1.1//EN" "http://www.w3.org/Graphics/SVG/1.1/DTD/svg11.dtd"><svg t="1592470717793" class="icon" viewBox="0 0 1024 1024" version="1.1" xmlns="http://www.w3.org/2000/svg" p-id="3448" xmlns:xlink="http://www.w3.org/1999/xlink" width="200" height="200"><defs><style type="text/css"></style></defs><path d="M512 128c236.8 0 384 83.2 384 128s-147.2 128-384 128-384-83.2-384-128 147.2-128 384-128m0-64C262.4 64 64 147.2 64 256s198.4 192 448 192 448-83.2 448-192-198.4-192-448-192z" p-id="3449"></path><path d="M761.6 416C857.6 448 896 492.8 896 512c0 44.8-147.2 128-384 128S128 556.8 128 512c0-19.2 38.4-64 134.4-96 76.8 19.2 160 32 249.6 32s172.8-12.8 249.6-32m0-64c-70.4 19.2-160 32-249.6 32s-179.2-12.8-249.6-32C140.8 384 64 448 64 512c0 108.8 198.4 192 448 192s448-83.2 448-192c0-64-76.8-128-198.4-160z" p-id="3450"></path><path d="M761.6 672c96 32 134.4 76.8 134.4 96 0 44.8-147.2 128-384 128s-384-83.2-384-128c0-19.2 38.4-64 134.4-96 76.8 19.2 160 32 249.6 32s172.8-12.8 249.6-32m0-64c-70.4 19.2-160 32-249.6 32s-179.2-12.8-249.6-32C140.8 640 64 704 64 768c0 108.8 198.4 192 448 192s448-83.2 448-192c0-64-76.8-128-198.4-160z" p-id="3451"></path></svg>