<?xml version="1.0" standalone="no"?><!DOCTYPE svg PUBLIC "-//W3C//DTD SVG 1.1//EN" "http://www.w3.org/Graphics/SVG/1.1/DTD/svg11.dtd"><svg t="1600062500220" class="icon" viewBox="0 0 1024 1024" version="1.1" xmlns="http://www.w3.org/2000/svg" p-id="6482" xmlns:xlink="http://www.w3.org/1999/xlink" width="200" height="200"><defs><style type="text/css"></style></defs><path d="M512 0C265.40032 0 0 64.1024 0 204.8s265.40032 204.8 512 204.8 512-64.1024 512-204.8S758.59968 0 512 0z" p-id="6483"></path><path d="M972.8 409.6a51.2 51.2 0 0 0-51.2 51.2v51.2c0 26.29632-140.82048 102.4-409.6 102.4S102.4 538.29632 102.4 512v-51.2a51.2 51.2 0 0 0-102.4 0v358.4c0 140.6976 265.40032 204.8 512 204.8s512-64.1024 512-204.8V460.8a51.2 51.2 0 0 0-51.2-51.2zM512 921.6c-268.77952 0-409.6-76.10368-409.6-102.4v-177.9712c99.79904 51.2 258.048 75.5712 409.6 75.5712s309.80096-24.30976 409.6-75.5712V819.2c0 26.29632-140.82048 102.4-409.6 102.4z" p-id="6484"></path></svg>