<?xml version="1.0" standalone="no"?><!DOCTYPE svg PUBLIC "-//W3C//DTD SVG 1.1//EN" "http://www.w3.org/Graphics/SVG/1.1/DTD/svg11.dtd"><svg t="1599118907037" class="icon" viewBox="0 0 1088 1024" version="1.1" xmlns="http://www.w3.org/2000/svg" p-id="4803" xmlns:xlink="http://www.w3.org/1999/xlink" width="212.5" height="200"><defs><style type="text/css"></style></defs><path d="M48 1008l64-64 896 0 64 64L48 1008zM976 912l-64 0-704 0-64 0 0-64 0-32 0-704c0-35.328 28.672-64 64-64l704 0c35.328 0 64 28.672 64 64l0 736 0 0L976 912zM912 112l-704 0 0 672 704 0L912 112zM368 720l-96 0 0-352 96 0L368 720zM432.704 293.568c0.256-38.688 31.456-53.824 68.768-53.504l117.504 0c37.568 0.32 67.872 14.88 67.616 53.504l-0.576 78.176 33.696 0 0 348.224L399.616 719.968 399.616 371.744l33.088 0L432.704 293.568zM621.376 367.84 621.376 303.712 496.96 303.712l-0.48 64.128L621.376 367.84zM848 720l-96 0 0-352 96 0L848 720z" p-id="4804"></path></svg>