<?xml version="1.0" standalone="no"?><!DOCTYPE svg PUBLIC "-//W3C//DTD SVG 1.1//EN" "http://www.w3.org/Graphics/SVG/1.1/DTD/svg11.dtd"><svg t="1598680829103" class="icon" viewBox="0 0 1024 1024" version="1.1" xmlns="http://www.w3.org/2000/svg" p-id="14070" xmlns:xlink="http://www.w3.org/1999/xlink" width="200" height="200"><defs><style type="text/css"></style></defs><path d="M874.666667 823.466667h-725.333334c-21.333333 0-42.666667 17.066667-42.666666 42.666666 0 21.333333 21.333333 42.666667 42.666666 42.666667h725.333334c21.333333 0 42.666667-21.333333 42.666666-42.666667s-21.333333-42.666667-42.666666-42.666666zM149.333333 512l674.133334 179.2c34.133333 8.533333 68.266667-12.8 76.8-46.933333 8.533333-34.133333-12.8-68.266667-46.933334-76.8l-226.133333-59.733334-110.933333-358.4c-4.266667-17.066667-17.066667-25.6-34.133334-29.866666-29.866667-8.533333-55.466667 12.8-55.466666 42.666666v294.4L213.333333 401.066667l-25.6-85.333334c-4.266667-12.8-17.066667-21.333333-29.866666-25.6h-12.8c-12.8-4.266667-25.6 4.266667-25.6 17.066667V469.333333c0 17.066667 12.8 34.133333 29.866666 42.666667z" p-id="14071"></path></svg>