<?xml version="1.0" standalone="no"?><!DOCTYPE svg PUBLIC "-//W3C//DTD SVG 1.1//EN" "http://www.w3.org/Graphics/SVG/1.1/DTD/svg11.dtd"><svg t="1598680892992" class="icon" viewBox="0 0 3968 1024" version="1.1" xmlns="http://www.w3.org/2000/svg" p-id="14330" xmlns:xlink="http://www.w3.org/1999/xlink" width="775" height="200"><defs><style type="text/css"></style></defs><path d="M32 505.152c0-16.32 4.832-29.952 14.528-40.832 9.696-10.88 24.256-16.32 43.648-16.32 19.392 0 34.112 5.44 44.16 16.32 10.016 10.88 15.04 24.512 15.04 40.832 0 16-5.024 29.344-15.04 40.064-10.048 10.72-24.768 16.064-44.16 16.064-19.392 0-33.92-5.344-43.648-16.064-9.696-10.72-14.528-24.064-14.528-40.064z m272.512 0c0-16.32 4.832-29.952 14.528-40.832 9.696-10.88 24.256-16.32 43.616-16.32 19.392 0 34.112 5.44 44.16 16.32 10.048 10.88 15.04 24.512 15.04 40.832 0 16-4.992 29.344-15.04 40.064-10.048 10.72-24.768 16.064-44.16 16.064-19.36 0-33.92-5.344-43.616-16.064-9.696-10.72-14.528-24.064-14.528-40.064z m272.48 0c0-16.32 4.864-29.952 14.56-40.832 9.696-10.88 24.224-16.32 43.616-16.32s34.112 5.44 44.16 16.32c10.016 10.88 15.04 24.512 15.04 40.832 0 16-5.024 29.344-15.04 40.064-10.048 10.72-24.768 16.064-44.16 16.064-19.392 0-33.92-5.344-43.616-16.064-9.696-10.72-14.56-24.064-14.56-40.064z m272.512 0c0-16.32 4.832-29.952 14.528-40.832 9.696-10.88 24.256-16.32 43.648-16.32 19.392 0 34.08 5.44 44.128 16.32 10.048 10.88 15.04 24.512 15.04 40.832 0 16-4.992 29.344-15.04 40.064-10.048 10.72-24.736 16.064-44.16 16.064-19.36 0-33.92-5.344-43.616-16.064-9.696-10.72-14.528-24.064-14.528-40.064z m272.48 0c0-16.32 4.864-29.952 14.56-40.832 9.696-10.88 24.224-16.32 43.616-16.32s34.112 5.44 44.16 16.32c10.016 10.88 15.04 24.512 15.04 40.832 0 16-5.024 29.344-15.04 40.064-10.048 10.72-24.768 16.064-44.16 16.064-19.392 0-33.92-5.344-43.616-16.064-9.696-10.72-14.56-24.064-14.56-40.064z" fill="#787878" p-id="14331"></path><path d="M2720 505.152c0-16.32 4.832-29.952 14.528-40.832 9.696-10.88 24.256-16.32 43.648-16.32 19.392 0 34.112 5.44 44.16 16.32 10.016 10.88 15.04 24.512 15.04 40.832 0 16-5.024 29.344-15.04 40.064-10.048 10.72-24.768 16.064-44.16 16.064-19.392 0-33.92-5.344-43.648-16.064-9.696-10.72-14.528-24.064-14.528-40.064z m272.512 0c0-16.32 4.832-29.952 14.528-40.832 9.696-10.88 24.256-16.32 43.616-16.32 19.392 0 34.112 5.44 44.16 16.32 10.048 10.88 15.04 24.512 15.04 40.832 0 16-4.992 29.344-15.04 40.064-10.048 10.72-24.768 16.064-44.16 16.064-19.36 0-33.92-5.344-43.616-16.064-9.696-10.72-14.528-24.064-14.528-40.064z m272.48 0c0-16.32 4.864-29.952 14.56-40.832 9.696-10.88 24.224-16.32 43.616-16.32s34.112 5.44 44.16 16.32c10.016 10.88 15.04 24.512 15.04 40.832 0 16-5.024 29.344-15.04 40.064-10.048 10.72-24.768 16.064-44.16 16.064-19.392 0-33.92-5.344-43.616-16.064-9.696-10.72-14.56-24.064-14.56-40.064z m272.512 0c0-16.32 4.832-29.952 14.528-40.832 9.696-10.88 24.256-16.32 43.648-16.32 19.392 0 34.08 5.44 44.128 16.32 10.048 10.88 15.04 24.512 15.04 40.832 0 16-4.992 29.344-15.04 40.064-10.048 10.72-24.736 16.064-44.16 16.064-19.36 0-33.92-5.344-43.616-16.064-9.696-10.72-14.528-24.064-14.528-40.064z m270.496 0c0-16.32 4.832-29.952 14.528-40.832 9.696-10.88 24.256-16.32 43.648-16.32 19.392 0 34.112 5.44 44.16 16.32 10.016 10.88 15.04 24.512 15.04 40.832 0 16-5.024 29.344-15.04 40.064-10.048 10.72-24.768 16.064-44.16 16.064-19.392 0-33.92-5.344-43.648-16.064-9.696-10.72-14.528-24.064-14.528-40.064z" fill="#787878" p-id="14332"></path><path d="M1719.2 568.384H2254.4c78.368-10.016 118.72-30.08 121.152-60.256-3.008-48.672-43.392-76-121.152-81.952H1708.864l-94.496 78.176 104.832 64.032zM1983.36 395.776L1920.16 107.84l79.84 1.6 158.272 286.336h-174.976zM2183.232 595.488l-116.992 316.384-84.16-1.728 13.44-314.656h187.712zM1745.824 600l-58.944 66.048a24.096 24.096 0 0 1-26.432 5.76c-20.704-5.824-31.072-20.384-31.072-43.616l11.04-74.176 58.72 44.352 46.688 1.632zM1654.848 430.56l-7.456-100.448a24.096 24.096 0 0 1 14.208-23.04c18.56-10.816 36.256-8.16 52.992 8l50.528 75.104-65.728 4.672-44.544 35.712z" fill="#787878" p-id="14333"></path></svg>