<?xml version="1.0" standalone="no"?><!DOCTYPE svg PUBLIC "-//W3C//DTD SVG 1.1//EN" "http://www.w3.org/Graphics/SVG/1.1/DTD/svg11.dtd"><svg t="1598837578837" class="icon" viewBox="0 0 1024 1024" version="1.1" xmlns="http://www.w3.org/2000/svg" p-id="52383" xmlns:xlink="http://www.w3.org/1999/xlink" width="200" height="200"><defs><style type="text/css"></style></defs><path d="M520.704 154.624c201.728 0 366.08 164.352 366.08 366.08s-164.352 366.08-366.08 366.08-366.08-164.352-366.08-366.08S318.976 154.624 520.704 154.624M520.704 95.744c-234.496 0-424.96 190.464-424.96 424.96 0 234.496 190.464 424.96 424.96 424.96s424.96-190.464 424.96-424.96C945.664 286.208 755.2 95.744 520.704 95.744L520.704 95.744z" p-id="52384"></path><path d="M332.8 789.504c-16.384 0-29.184-13.312-29.184-29.184L303.616 320.512c0-16.384 13.312-29.184 29.184-29.184s29.184 13.312 29.184 29.184l0 439.808C362.496 776.704 349.184 789.504 332.8 789.504z" p-id="52385"></path><path d="M260.096 402.944c-9.216 0-17.92-4.096-23.552-11.776-9.728-13.312-6.656-31.232 6.144-40.96L315.904 296.96c13.312-9.728 31.232-6.656 40.96 6.144 9.728 13.312 6.656 31.232-6.144 40.96L277.504 397.312C271.872 401.408 266.24 402.944 260.096 402.944z" p-id="52386"></path><path d="M724.992 586.24 404.992 586.24c-16.384 0-29.184-13.312-29.184-29.184s13.312-29.184 29.184-29.184l320 0c16.384 0 29.184 13.312 29.184 29.184S741.376 586.24 724.992 586.24z" p-id="52387"></path><path d="M565.248 786.944c-16.384 0-29.184-13.312-29.184-29.184L536.064 472.064c0-16.384 13.312-29.184 29.184-29.184s29.184 13.312 29.184 29.184L594.432 757.76C594.432 774.144 581.12 786.944 565.248 786.944z" p-id="52388"></path><path d="M413.184 785.408c-5.12 0-9.728-1.024-14.336-3.584-13.824-8.192-18.944-26.112-10.752-39.936l66.048-116.224c8.192-13.824 26.112-18.944 39.936-10.752 13.824 8.192 18.944 26.112 10.752 39.936l-66.048 116.224C433.664 780.288 423.424 785.408 413.184 785.408z" p-id="52389"></path><path d="M716.8 785.408c-10.24 0-19.968-5.12-25.6-14.848l-66.048-116.224c-8.192-13.824-3.072-31.744 10.752-39.936 14.336-8.192 31.744-3.072 39.936 10.752l66.048 116.224c8.192 13.824 3.072 31.744-10.752 39.936C726.528 784.384 721.92 785.408 716.8 785.408z" p-id="52390"></path><path d="M663.04 495.616 466.944 495.616c-40.448 0-73.216-32.768-73.216-73.216L393.728 348.672c0-40.448 32.768-73.216 73.216-73.216l196.096 0c40.448 0 73.216 32.768 73.216 73.216l0 73.216C736.256 462.336 703.488 495.616 663.04 495.616zM466.944 334.336c-8.192 0-14.848 6.656-14.848 14.848l0 73.216c0 8.192 6.656 14.848 14.848 14.848l196.096 0c8.192 0 14.848-6.656 14.848-14.848L677.888 348.672c0-8.192-6.656-14.848-14.848-14.848L466.944 333.824z" p-id="52391"></path></svg>