<?xml version="1.0" standalone="no"?><!DOCTYPE svg PUBLIC "-//W3C//DTD SVG 1.1//EN" "http://www.w3.org/Graphics/SVG/1.1/DTD/svg11.dtd"><svg t="1601390238707" class="icon" viewBox="0 0 1024 1024" version="1.1" xmlns="http://www.w3.org/2000/svg" p-id="6660" xmlns:xlink="http://www.w3.org/1999/xlink" width="200" height="200"><defs><style type="text/css"></style></defs><path d="M679.36 901.12h-312a112.32 112.32 0 0 1-115.2-109.12v-288a67.2 67.2 0 0 1-56.64-17.28l-94.4-85.76a64 64 0 0 1-20.48-46.08 64 64 0 0 1 20.48-45.76l168.96-156.48a68.48 68.48 0 0 1 64-15.04 123.2 123.2 0 0 1 32-4.48h68.48l2.88 28.8a82.56 82.56 0 0 0 84.8 69.44A82.24 82.24 0 0 0 608 161.92l2.88-28.8h68.48a123.52 123.52 0 0 1 32 4.48 68.16 68.16 0 0 1 64 15.04l168.96 156.48a61.76 61.76 0 0 1 20.48 45.76 64 64 0 0 1-20.48 46.08l-94.08 87.04a67.2 67.2 0 0 1-56.64 17.28v288a112.64 112.64 0 0 1-114.24 107.84zM316.16 374.4v417.6a48.64 48.64 0 0 0 51.2 45.12h312a48.64 48.64 0 0 0 51.52-45.12v-416l72 66.88a4.8 4.8 0 0 0 5.12 0l93.12-86.4-167.68-156.8a5.12 5.12 0 0 0-4.8 0l-13.44 7.68-14.4-5.76a54.4 54.4 0 0 0-21.44-4.16h-13.76a147.52 147.52 0 0 1-142.08 98.24 147.52 147.52 0 0 1-142.4-98.24h-13.76a55.68 55.68 0 0 0-21.44 4.16l-14.08 5.76-11.84-8a5.12 5.12 0 0 0-4.8 0l-170.56 156.48 94.08 85.44a5.44 5.44 0 0 0 5.44 0z" p-id="6661"></path></svg>