<?xml version="1.0" standalone="no"?><!DOCTYPE svg PUBLIC "-//W3C//DTD SVG 1.1//EN" "http://www.w3.org/Graphics/SVG/1.1/DTD/svg11.dtd"><svg t="1601388110897" class="icon" viewBox="0 0 1322 1024" version="1.1" xmlns="http://www.w3.org/2000/svg" p-id="4378" xmlns:xlink="http://www.w3.org/1999/xlink" width="258.203125" height="200"><defs><style type="text/css"></style></defs><path d="M1237.634613 1024.00125l-1153.925188 0c-46.149507 0-83.709425-36.899854-83.709425-82.221779L0 82.189276C0 36.899854 37.559918 0 83.709425 0l1153.925188 0C1283.78787 0 1321.379041 36.899854 1321.379041 82.189276L1321.379041 941.779471C1321.379041 987.101397 1283.78787 1024.00125 1237.634613 1024.00125L1237.634613 1024.00125zM1255.272585 95.700596c0-16.28534-13.607579-29.532884-30.356715-29.532884l-1128.455201 0c-16.749136 0-30.359215 13.247544-30.359215 29.532884l0 832.598808c0 16.28659 13.643832 29.532884 30.359215 29.532884l1128.455201 0c16.749136 0 30.356715-13.246294 30.356715-29.532884L1255.272585 95.700596 1255.272585 95.700596zM726.592206 494.954585 1156.600449 494.954585l0 66.167712L726.592206 561.122297 726.592206 494.954585 726.592206 494.954585zM726.592206 264.110792 1156.600449 264.110792l0 66.200215L726.592206 330.311007 726.592206 264.110792 726.592206 264.110792zM1156.567946 792.826174 165.667428 792.826174l0-66.201465 990.900518 0L1156.567946 792.826174 1156.567946 792.826174z" p-id="4379"></path><path d="M601.29622 396.038676c-16.259088 11.866159-33.578279 24.637406-51.923821 38.343745l0 130.931536c0 21.188319-8.477078 34.282098-25.432484 39.280086-16.955406 4.969235-39.572615 8.709601-67.819123 11.223596-1.423889-16.221584-8.477078-31.799355-21.19332-46.762067 32.485672 1.22762 52.983924 1.22762 61.461002 0 8.477078-1.256373 12.716242-7.480731 12.716242-18.704327l0-87.911085-6.358121 0c-49.473581 34.925911-87.952339 58.306944-115.50503 70.14185-27.551441 11.864909-57.221838 23.702315-89.012443 35.538471-31.790605 11.837406-69.608048 24.608653-113.384823 38.344995-5.663053-14.963961-16.955406-26.83012-33.909561-35.538471 38.148725-6.255611 76.627483-15.577771 115.50503-28.05649 38.843793-12.451216 71.329466-25.251216 97.48952-38.344995 26.127552-13.093779 50.499932-26.478836 73.11714-40.213927L231.470105 464.311593c-19.803184 0-42.386639 0.642563-67.819123 1.870183l0-37.408653c29.670397 1.256373 57.918156 1.870183 84.774529 1.870183L248.42551 290.358355c0-22.445942-0.728821-46.760816-2.118957-72.948374l84.774529 0c5.6293-22.445942 9.172146-39.278836 10.597285-50.502432l57.221838 9.352163c-11.326106 13.736341-19.803184 27.44393-25.432484 41.150269L551.491357 217.409981c-1.423889 26.186307-2.118957 50.502432-2.118957 72.948374l0 101.004864c28.246508-21.189569 45.896982-38.636273 52.983924-52.372615l44.506846 33.668288C632.721789 376.399258 617.521555 384.20252 601.29622 396.038676zM509.104717 290.358355l0-44.890634L290.8109 245.467721l0 44.890634L509.104717 290.358355zM509.104717 363.306729l0-43.020451L290.8109 320.286278l0 43.020451L509.104717 363.306729zM487.911398 430.642055l21.19332-13.093779 0-24.316125L290.8109 393.232152l0 37.408653L487.911398 430.640805z" p-id="4380"></path></svg>