<?xml version="1.0" standalone="no"?><!DOCTYPE svg PUBLIC "-//W3C//DTD SVG 1.1//EN" "http://www.w3.org/Graphics/SVG/1.1/DTD/svg11.dtd"><svg t="1600414364640" class="icon" viewBox="0 0 1024 1024" version="1.1" xmlns="http://www.w3.org/2000/svg" p-id="5398" xmlns:xlink="http://www.w3.org/1999/xlink" width="200" height="200"><defs><style type="text/css"></style></defs><path d="M913.8 484.4l-52.2-8.4c-7-1.2-12.2-6.6-13.2-13.6-1-6.4-2-12.8-3.4-19-1.4-6.8 1.8-13.8 7.8-17.2l46.2-25.6c7.2-3.6 10.6-12.2 7.8-19.8l-8-22c-2.8-7.6-10.8-12-18.8-10l-51.8 10c-6.8 1.4-13.8-2-17.2-8.2-3-5.6-6.2-11.2-9.6-16.8-3.6-6-3.2-13.6 1.4-19l34.6-39.8c5.6-6 5.8-15 0.6-21.2l-15-18c-5.2-6.2-14.2-7.6-21-3L756.6 260c-6 3.6-13.6 2.8-18.8-1.8-4.8-4.2-9.8-8.4-14.8-12.4-5.4-4.4-7.6-11.8-5-18.2l18.8-49.4c3.2-7.4 0.4-16.2-6.6-20.2l-20.4-11.8c-7-4-16-2.2-20.8 4.4l-33.2 41.6c-4 5-9.8 7.6-17 5 0 0-11.2-4.6-19.6-7.4-6.6-2.2-11.2-8.4-11-15.4l0.8-52.8c0.4-8.2-5.2-15.4-13.2-16.8l-23.2-4c-8-1.4-15.8 3.4-18.2 11.2l-17.2 50c-2.2 6.6-8.6 11-15.6 10.8-3.2 0-6.6-0.2-9.8-0.2s-6.6 0-9.8 0.2c-7 0.2-13.2-4.2-15.6-10.8l-17.2-50c-2.4-7.8-10.2-12.6-18.2-11.2l-23.2 4c-8 1.4-13.6 8.6-13.2 16.8l0.8 52.8c0.2 7-4.2 12.8-11 15.4-4.6 1.8-14.6 5.6-19.4 7.4-5.6 2-12.2 0.4-17.6-5.8l-33-40.6c-4.8-6.6-13.8-8.4-20.8-4.4l-20.4 11.8c-7 4-10 12.8-6.6 20.2l18.8 49.4c2.4 6.6 0.4 14-5 18.2-5 4-10 8.2-14.8 12.4-5.2 4.6-12.8 5.4-18.8 1.8L222 232.6c-6.8-4.4-15.8-3.2-21 3l-15 18c-5.2 6.2-5 15.4 0.6 21.2l34.6 39.8c4.6 5.2 5.2 13 1.4 19-3.4 5.4-6.6 11-9.6 16.8-3.4 6.2-10.2 9.4-17.2 8.2l-51.8-10c-8-1.8-16 2.4-18.8 10l-8 22c-2.8 7.6 0.6 16.2 7.8 19.8L171.2 426c6.2 3.4 9.2 10.4 7.8 17.2-1.2 6.4-2.4 12.6-3.4 19-1 7-6.4 12.4-13.2 13.6l-52.2 8.4c-8 1-14.2 7.8-14.2 15.8v23.4c0 8.2 6 15 14.2 15.8l52.2 8.4c7 1.2 12.2 6.6 13.2 13.6 1 6.4 2 12.8 3.4 19 1.4 6.8-1.8 13.8-7.8 17.2l-46.2 25.6c-7.2 3.6-10.6 12.2-7.8 19.8l8 22c2.8 7.6 10.8 12 18.8 10l51.8-10c6.8-1.4 13.8 2 17.2 8.2 3 5.6 6.2 11.2 9.6 16.8 3.6 6 3.2 13.6-1.4 19l-34.6 39.8c-5.6 6-5.8 15-0.6 21.2l15 18c5.2 6.2 14.2 7.6 21 3l45.4-27.2c6-3.6 13.6-2.8 18.8 1.8 4.8 4.2 9.8 8.4 14.8 12.4 5.4 4.4 7.6 11.8 5 18.2l-18.8 49.4c-3.2 7.4-0.4 16.2 6.6 20.2l20.4 11.8c7 4 16 2.2 20.8-4.4l33.6-41.2c4.2-5.2 11-7.4 16.4-5.2 6.8 2.8 11.4 4.4 19.8 7.2 6.6 2.2 11.2 8.4 11 15.4l-0.8 52.8c-0.4 8.2 5.2 15.4 13.2 16.8l23.2 4c8 1.4 15.8-3.4 18.2-11.2l17.2-50c2.2-6.6 8.6-11 15.6-10.8 3.2 0 6.6 0.2 9.8 0.2s6.6 0 9.8-0.2c7-0.2 13.2 4.2 15.6 10.8l17.2 50c2.4 7.8 10.2 12.6 18.2 11.2l23.2-4c8-1.4 13.6-8.6 13.2-16.8l-0.8-52.8c-0.2-7 4.4-13.2 11-15.4 8.4-2.8 14-5 19.2-7 5.2-1.8 11.6-2 16.6 4.2l34 41.8c4.8 6.6 13.8 8.4 20.8 4.4l20.4-11.8c7-4 10-12.8 6.6-20.2l-18.8-49.4c-2.4-6.6-0.4-14 5-18.2 5-4 10-8.2 14.8-12.4 5.2-4.6 12.8-5.4 18.8-1.8l45.4 27.2c6.8 4.4 15.8 3.2 21-3l15-18c5.2-6.2 5-15.4-0.6-21.2l-34.6-39.8c-4.6-5.2-5.2-13-1.4-19 3.4-5.4 6.6-11 9.6-16.8 3.4-6.2 10.2-9.4 17.2-8.2l51.8 10c8 1.8 16-2.4 18.8-10l8-22c2.8-7.6-0.6-16.2-7.8-19.8l-46.2-25.6c-6.2-3.4-9.2-10.4-7.8-17.2 1.2-6.4 2.4-12.6 3.4-19 1-7 6.4-12.4 13.2-13.6l52.2-8.4c8-1 14.2-7.8 14.2-15.8v-23.4c-0.4-7.6-6.4-14.6-14.6-15.4zM363.6 713.8c-10.4 18-34.8 21.4-50 7.2C258.4 668.4 224 594.2 224 512c0-81.8 34.2-155.8 89-208.2 15-14.4 39.6-11 50 7l112 193.2c2.8 5 2.8 11 0 16l-111.4 193.8zM792 579.4C761.8 706 647.8 800 512 800c-28.2 0-55.6-4-81.2-11.6-19.8-5.8-29-28.8-18.6-46.6l111.4-193.8c2.8-5 8.2-8 13.8-8h223.4c20.8 0 36 19.2 31.2 39.4zM761 484H537.4c-5.8 0-11-3-13.8-8l-112.2-193.4c-10.4-17.8-1.4-40.8 18.4-46.8 26-7.8 53.6-11.8 82.2-11.8 135.8 0 249.8 94 280 220.6 4.8 20.2-10.4 39.4-31 39.4z" p-id="5399"></path></svg>