<?xml version="1.0" standalone="no"?><!DOCTYPE svg PUBLIC "-//W3C//DTD SVG 1.1//EN" "http://www.w3.org/Graphics/SVG/1.1/DTD/svg11.dtd"><svg t="1600062647269" class="icon" viewBox="0 0 1024 1024" version="1.1" xmlns="http://www.w3.org/2000/svg" p-id="10383" xmlns:xlink="http://www.w3.org/1999/xlink" width="200" height="200"><defs><style type="text/css"></style></defs><path d="M530.366 465.966c-101.894 0-198.229-14.719-271.259-41.445-37.804-13.835-68.035-30.421-89.852-49.299-34.32-29.695-41.524-59.93-41.524-80.065s7.204-50.37 41.524-80.065c21.817-18.877 52.048-35.464 89.852-49.299 73.03-26.726 169.365-41.445 271.259-41.445 101.893 0 198.228 14.719 271.258 41.445 37.804 13.835 68.035 30.421 89.852 49.299 34.32 29.695 41.524 59.93 41.524 80.065s-7.204 50.37-41.524 80.065c-21.817 18.878-52.048 35.464-89.852 49.299-73.03 26.726-169.365 41.445-271.258 41.445z m0-267.618c-93.436 0-180.739 13.118-245.827 36.938-56.895 20.821-82.808 45.631-82.808 59.871s25.913 39.05 82.808 59.871c65.088 23.82 152.392 36.938 245.827 36.938s180.738-13.118 245.827-36.938C833.087 334.206 859 309.397 859 295.157s-25.913-39.05-82.808-59.871c-65.088-23.82-152.391-36.938-245.826-36.938zM530.366 682.809c-101.894 0-198.229-14.719-271.259-41.445-37.804-13.835-68.035-30.421-89.852-49.299-34.32-29.695-41.524-59.93-41.524-80.065 0-20.435 16.565-37 37-37s37 16.565 37 37c0 14.24 25.913 39.05 82.808 59.871 65.088 23.82 152.392 36.938 245.827 36.938s180.738-13.118 245.827-36.938C833.087 551.05 859 526.24 859 512c0-20.435 16.565-37 37-37s37 16.565 37 37c0 20.135-7.204 50.37-41.524 80.065-21.817 18.877-52.048 35.464-89.852 49.299-73.03 26.726-169.365 41.445-271.258 41.445zM530.366 909.644c-101.894 0-198.229-14.719-271.259-41.446-37.804-13.835-68.035-30.421-89.852-49.299-34.32-29.695-41.524-59.93-41.524-80.065 0-20.435 16.565-37 37-37s37 16.565 37 37c0 14.24 25.913 39.05 82.808 59.871 65.088 23.82 152.392 36.938 245.827 36.938s180.738-13.118 245.827-36.938c56.894-20.821 82.807-45.63 82.807-59.87 0-20.435 16.565-37 37-37s37 16.565 37 37c0 20.135-7.204 50.37-41.524 80.065-21.817 18.877-52.048 35.464-89.852 49.299-73.03 26.726-169.365 41.445-271.258 41.445z" p-id="10384"></path></svg>