<?xml version="1.0" standalone="no"?><!DOCTYPE svg PUBLIC "-//W3C//DTD SVG 1.1//EN" "http://www.w3.org/Graphics/SVG/1.1/DTD/svg11.dtd"><svg t="1592476530041" class="icon" viewBox="0 0 1066 1024" version="1.1" xmlns="http://www.w3.org/2000/svg" p-id="4274" xmlns:xlink="http://www.w3.org/1999/xlink" width="208.203125" height="200"><defs><style type="text/css"></style></defs><path d="M855.722667 719.658667a114.944 114.944 0 1 1-101.973334 168.149333H354.645333c-140.373333 0-256.042667-94.976-256.042666-214.016s115.712-214.016 256-214.016h366.677333c39.552-1.28 76.074667-13.866667 103.509333-35.626667 25.685333-20.266667 39.296-45.738667 39.296-71.68 0-25.856-13.653333-51.328-39.338666-71.68-28.757333-22.869333-67.84-35.669333-109.909334-35.669333H314.794667a114.986667 114.986667 0 1 1 0-106.666667h400.042666c140.373333 0 256 94.933333 256 214.058667 0 119.04-115.626667 214.016-256 214.016H348.16c-39.552 1.237333-76.074667 13.824-103.552 35.584-25.6 20.309333-39.253333 45.781333-39.253333 71.68s13.653333 51.370667 39.296 71.68c28.8 22.912 67.882667 35.712 109.952 35.712h399.232a115.029333 115.029333 0 0 1 101.845333-61.525333z" p-id="4275"></path><path d="M853.333333 832m-149.333333 0a149.333333 149.333333 0 1 0 298.666667 0 149.333333 149.333333 0 1 0-298.666667 0Z" p-id="4276"></path><path d="M213.333333 192m-149.333333 0a149.333333 149.333333 0 1 0 298.666667 0 149.333333 149.333333 0 1 0-298.666667 0Z" p-id="4277"></path></svg>