<?xml version="1.0" standalone="no"?><!DOCTYPE svg PUBLIC "-//W3C//DTD SVG 1.1//EN" "http://www.w3.org/Graphics/SVG/1.1/DTD/svg11.dtd"><svg t="1599119753003" class="icon" viewBox="0 0 1024 1024" version="1.1" xmlns="http://www.w3.org/2000/svg" p-id="21681" xmlns:xlink="http://www.w3.org/1999/xlink" width="200" height="200"><defs><style type="text/css"></style></defs><path d="M938.666667 136.533333H341.333333a17.066667 17.066667 0 1 0 0 34.133334h597.333334c28.228267 0 51.2 22.971733 51.2 51.2v768H307.2V221.866667c0-47.0528-38.280533-85.333333-85.333333-85.333334s-85.333333 38.280533-85.333334 85.333334v580.266666c0 28.228267-22.971733 51.2-51.2 51.2s-51.2-22.971733-51.2-51.2V34.133333h682.666667v51.2a17.066667 17.066667 0 1 0 34.133333 0V17.066667a17.066667 17.066667 0 0 0-17.066666-17.066667H17.066667a17.066667 17.066667 0 0 0-17.066667 17.066667v785.066666c0 47.0528 38.280533 85.333333 85.333333 85.333334s85.333333-38.280533 85.333334-85.333334V221.866667c0-28.228267 22.971733-51.2 51.2-51.2s51.2 22.971733 51.2 51.2v631.466666h-85.333334a17.066667 17.066667 0 1 0 0 34.133334h85.333334v119.466666a17.066667 17.066667 0 0 0 17.066666 17.066667h716.8a17.066667 17.066667 0 0 0 17.066667-17.066667V221.866667c0-47.0528-38.280533-85.333333-85.333333-85.333334" fill="#231F1F" p-id="21682"></path><path d="M494.933333 546.133333h-68.266666a17.066667 17.066667 0 0 0-17.066667 17.066667v102.4a17.066667 17.066667 0 1 0 34.133333 0v-85.333333h34.133334v85.333333a17.066667 17.066667 0 0 0 17.066666 17.066667h68.266667a17.066667 17.066667 0 0 0 17.066667-17.066667V443.733333h34.133333v221.866667a17.066667 17.066667 0 0 0 17.066667 17.066667h68.266666a17.066667 17.066667 0 0 0 17.066667-17.066667v-153.6h34.133333v153.6a17.066667 17.066667 0 0 0 17.066667 17.066667h68.266667a17.066667 17.066667 0 0 0 17.066666-17.066667V307.2h17.066667a17.066667 17.066667 0 1 0 0-34.133333h-34.133333a17.066667 17.066667 0 0 0-17.066667 17.066666v358.4h-34.133333v-153.6a17.066667 17.066667 0 0 0-17.066667-17.066666h-68.266667a17.066667 17.066667 0 0 0-17.066666 17.066666v153.6h-34.133334V426.666667a17.066667 17.066667 0 0 0-17.066666-17.066667h-68.266667a17.066667 17.066667 0 0 0-17.066667 17.066667v221.866666h-34.133333v-85.333333a17.066667 17.066667 0 0 0-17.066667-17.066667M426.666667 887.466667h443.733333a17.066667 17.066667 0 1 0 0-34.133334H426.666667a17.066667 17.066667 0 1 0 0 34.133334M426.666667 785.066667h204.8a17.066667 17.066667 0 1 0 0-34.133334H426.666667a17.066667 17.066667 0 1 0 0 34.133334M699.733333 750.933333a17.066667 17.066667 0 1 0 0 34.133334h102.4a17.066667 17.066667 0 1 0 0-34.133334h-102.4" fill="#231F1F" p-id="21683"></path></svg>