<?xml version="1.0" standalone="no"?><!DOCTYPE svg PUBLIC "-//W3C//DTD SVG 1.1//EN" "http://www.w3.org/Graphics/SVG/1.1/DTD/svg11.dtd"><svg t="1599120108304" class="icon" viewBox="0 0 1024 1024" version="1.1" xmlns="http://www.w3.org/2000/svg" p-id="29821" xmlns:xlink="http://www.w3.org/1999/xlink" width="200" height="200"><defs><style type="text/css"></style></defs><path d="M290.514286 533.485714c1.485714 0.342857 3.085714 0.457143 4.571428 0.457143 10.628571 0 20.228571-7.542857 22.4-18.285714 10.742857-53.028571 33.257143-100.571429 63.314286-133.942857 32.914286-36.457143 72.685714-54.857143 118.285714-54.971429 4.114286 0.342857 8.228571 0.457143 12.457143 0.457143 90.057143 0 163.428571-73.257143 163.428572-163.428571S601.714286 0.342857 511.542857 0.342857c-90.057143 0-163.428571 73.257143-163.428571 163.428572 0 55.542857 27.885714 104.685714 70.4 134.285714-26.285714 11.771429-50.4 29.485714-71.542857 52.914286-35.542857 39.428571-61.942857 94.628571-74.285715 155.542857-2.514286 12.342857 5.485714 24.457143 17.828572 26.971428z m103.314285-369.714285c0-64.914286 52.8-117.714286 117.714286-117.714286s117.714286 52.8 117.714286 117.714286-52.8 117.714286-117.714286 117.714285-117.714286-52.8-117.714286-117.714285zM735.428571 561.942857c-1.485714 0-2.971429 0.114286-4.457142 0.457143h-438.857143c-1.371429-0.228571-2.857143-0.457143-4.457143-0.457143-12.571429 0-22.857143 10.285714-22.857143 22.857143 0 12.8 10.4 23.314286 23.314286 23.314286h446.857143c12.8 0 23.314286-10.4 23.314285-23.314286 0-12.685714-10.285714-22.857143-22.857143-22.857143zM652.228571 329.6c-9.6-8.114286-24.114286-6.857143-32.228571 2.742857-8.114286 9.6-6.857143 24.114286 2.742857 32.228572 39.542857 33.257143 69.6 88.457143 82.742857 151.2 2.285714 10.742857 11.771429 18.171429 22.4 18.171428 1.485714 0 3.085714-0.114286 4.685715-0.457143 12.342857-2.514286 20.342857-14.628571 17.714285-27.085714-15.428571-73.6-50.171429-136.342857-98.057143-176.8z" p-id="29822"></path><path d="M780.914286 1023.542857H244.685714c-13.257143 0-24-10.742857-24-24V776.914286H96.914286c-13.257143 0-24-10.742857-24-24V586.285714c0-13.257143 10.742857-24 24-24h830.171428c13.257143 0 24 10.742857 24 24v166.628572c0 13.257143-10.742857 24-24 24H804.914286v222.514285c0 13.257143-10.742857 24.114286-24 24.114286z m-514.514286-45.714286h492.914286V755.2c0-13.257143 10.742857-24 24-24h122.057143V608H118.628571v123.2h123.771429c13.257143 0 24 10.742857 24 24v222.628571zM927.085714 608z" p-id="29823"></path></svg>