<?xml version="1.0" standalone="no"?><!DOCTYPE svg PUBLIC "-//W3C//DTD SVG 1.1//EN" "http://www.w3.org/Graphics/SVG/1.1/DTD/svg11.dtd"><svg t="1592476766033" class="icon" viewBox="0 0 1024 1024" version="1.1" xmlns="http://www.w3.org/2000/svg" p-id="5760" xmlns:xlink="http://www.w3.org/1999/xlink" width="200" height="200"><defs><style type="text/css"></style></defs><path d="M892.250862 846.746994 400.087653 846.746994c-37.007869 0-67.112514-30.105668-67.112514-67.113537 0-2.140757 0.480954-53.219085 41.334407-103.553471 23.50739-28.925796 55.534827-51.820226 95.208409-68.1174 47.931662-19.706831 107.399055-29.624714 176.653349-29.624714 69.251224 0 128.674615 10.005888 176.650279 29.624714 39.674605 16.298198 71.704089 39.192627 95.210455 68.1174 40.899502 50.334385 41.335431 101.413737 41.335431 103.553471C959.365422 816.641325 929.257707 846.746994 892.250862 846.746994zM377.716132 779.76444c0.044002 12.278651 10.092869 22.239514 22.370497 22.239514l492.163209 0c12.322653 0 22.324448-9.960863 22.372543-22.239514-0.048095-1.571798-1.444908-40.066531-33.033347-77.556377-43.606147-51.820226-125.009132-79.128175-235.420801-79.128175-110.412692 0-191.814654 27.39493-235.377822 79.128175C379.157971 739.78489 377.760135 778.192641 377.716132 779.76444z" p-id="5761"></path><path d="M646.169257 533.550829c-98.704023 0-178.969091-80.264045-178.969091-178.968068 0-98.704023 80.265068-178.969091 178.969091-178.969091 98.700953 0 178.970114 80.265068 178.970114 178.969091C825.139372 453.286784 744.87021 533.550829 646.169257 533.550829zM646.169257 220.35671c-74.016761 0-134.227074 60.228733-134.227074 134.226051s60.210313 134.227074 134.227074 134.227074 134.227074-60.23078 134.227074-134.227074S720.186018 220.35671 646.169257 220.35671z" p-id="5762"></path><path d="M265.861602 846.746994l-134.227074 0c-37.007869 0-67.112514-30.105668-67.112514-67.113537 0-1.660826 0.349971-41.46539 29.667693-80.527035 16.909112-22.588461 40.023552-40.460504 68.598354-53.175083 34.168194-15.205307 76.376505-22.895453 125.488039-22.895453 8.039093 0 15.904225 0.217964 23.594371 0.611937 12.32163 0.699941 21.759583 11.186783 21.147646 23.551392-0.611937 12.364609-11.18576 21.802562-23.50739 21.191648-6.904247-0.393973-13.982456-0.568958-21.191648-0.568958-174.205601 0-178.838108 106.438171-178.969091 111.98756 0.042979 12.234649 10.093892 22.239514 22.370497 22.239514l134.227074 0c12.365632 0 22.370497 10.005888 22.370497 22.37152 0 12.364609-10.004865 22.369473-22.370497 22.369473L265.861602 846.746994z" p-id="5763"></path><path d="M288.231075 578.293869c-73.973782 0-134.226051-60.210313-134.226051-134.227074 0-73.994248 60.252269-134.227074 134.226051-134.227074 73.973782 0 134.226051 60.232826 134.226051 134.227074C422.458149 518.083555 362.20588 578.293869 288.231075 578.293869zM288.231075 354.582761c-49.329499 0-89.484034 40.134069-89.484034 89.485057 0 49.353035 40.154535 89.483011 89.484034 89.483011 49.330522 0 89.485057-40.129976 89.485057-89.483011C377.716132 394.71683 337.561597 354.582761 288.231075 354.582761z" p-id="5764"></path></svg>