<?xml version="1.0" standalone="no"?><!DOCTYPE svg PUBLIC "-//W3C//DTD SVG 1.1//EN" "http://www.w3.org/Graphics/SVG/1.1/DTD/svg11.dtd"><svg t="1601388098158" class="icon" viewBox="0 0 1322 1024" version="1.1" xmlns="http://www.w3.org/2000/svg" p-id="3564" xmlns:xlink="http://www.w3.org/1999/xlink" width="258.203125" height="200"><defs><style type="text/css"></style></defs><path d="M1237.634613 1024.00125l-1153.925188 0c-46.149507 0-83.709425-36.899854-83.709425-82.221779L0 82.189276c0-45.289423 37.559918-82.189276 83.709425-82.189276l1153.925188 0c46.153257 0 83.744428 36.899854 83.744428 82.189276l0 859.588944C1321.379041 987.101397 1283.78787 1024.00125 1237.634613 1024.00125L1237.634613 1024.00125zM1255.272585 95.700596c0-16.28534-13.607579-29.532884-30.356715-29.532884l-1128.455201 0c-16.749136 0-30.359215 13.247544-30.359215 29.532884l0 832.598808c0 16.28659 13.643832 29.532884 30.359215 29.532884l1128.455201 0c16.749136 0 30.356715-13.246294 30.356715-29.532884L1255.272585 95.700596 1255.272585 95.700596zM726.592206 494.954585 1156.600449 494.954585l0 66.167712L726.592206 561.122297 726.592206 494.954585 726.592206 494.954585zM726.592206 264.110792 1156.600449 264.110792l0 66.200215L726.592206 330.311007 726.592206 264.110792 726.592206 264.110792zM1156.567946 792.826174 165.667428 792.826174l0-66.201465 990.900518 0L1156.567946 792.826174 1156.567946 792.826174z" p-id="3565"></path><path d="M263.034437 164.127278l33.635785 0c-1.076355 25.923782-1.601406 60.499658-1.601406 103.697627 16.017814 0 35.238441-0.607559 57.661881-1.851431l0 33.332005c-24.57615-1.215119-43.796777-1.851431-57.661881-1.851431l0 74.069733c14.941459-3.702862 34.162086-9.258404 57.661881-16.665377-1.076355 3.702862-0.550054 13.598828 1.601406 29.627893-9.610939 2.488993-29.381619 8.650845-59.263287 18.518058l0 127.769978c1.051353 13.570075-1.351382 24.67991-7.208204 33.332005-5.881824 8.620842-24.826174 15.421506-56.860553 20.369489-2.15271-14.815197-5.355523-27.776463-9.610939-38.886297 28.831566 1.215119 43.246723-4.91923 43.246723-18.518058l0-116.660143c-23.499795 6.191855-42.720422 12.354957-57.661881 18.518058-2.15271-9.867214-5.881824-21.584608-11.212345-35.183436 13.865104-2.45899 36.839848-7.406973 68.874226-14.813947l0-81.476707c-23.499795 0-43.796777 0.636312-60.865944 1.851431l0-33.332005c16.017814 1.243871 36.288544 1.851431 60.865944 1.851431C264.635843 227.085926 264.08579 192.540053 263.034437 164.127278zM556.149311 349.301611c0 32.115636 0.525051 55.552925 1.601406 70.366872l-33.635785 0 0-27.776463L407.189765 391.892021c-2.15271 43.226721-7.483231 80.550366-16.017814 112.030941-8.559586 31.479324-22.42469 61.395996-41.645317 89.810021-11.762399-8.652095-22.42469-15.450259-32.034378-20.369489 13.865104-16.059068 24.276121-31.769352 31.23305-47.219611 6.931927-15.420256 12.813751-32.694443 17.619221-51.848813 4.805469-19.124368 8.258306-46.293271 10.411017-81.476707 2.127708-35.183436 2.127708-86.105909 0-152.768669l180.993925 0C556.674363 279.571052 556.149311 315.969606 556.149311 349.301611zM525.716339 362.262877 525.716339 269.676336l-116.925168 0 0 92.587792L525.716339 362.264127zM490.479148 214.12341c-9.610939 3.702862-20.296982 8.650845-32.034378 14.813947-7.483231-23.436039-16.567868-43.805528-27.228909-61.107218 11.737396-4.91923 21.348335-9.865963 28.831566-14.813947C472.859928 175.237113 482.995918 195.606602 490.479148 214.12341z" p-id="3566"></path></svg>