<?xml version="1.0" standalone="no"?><!DOCTYPE svg PUBLIC "-//W3C//DTD SVG 1.1//EN" "http://www.w3.org/Graphics/SVG/1.1/DTD/svg11.dtd"><svg t="1592477073039" class="icon" viewBox="0 0 1024 1024" version="1.1" xmlns="http://www.w3.org/2000/svg" p-id="10752" xmlns:xlink="http://www.w3.org/1999/xlink" width="200" height="200"><defs><style type="text/css"></style></defs><path d="M299.428571 66.505143h415.707429C712.594286 30.08 692.004571 11.209143 652.562286 11.209143H362.422857c-39.424 0-60.416 18.870857-62.994286 55.296z m-75.849142 118.710857h564.425142c-6.436571-39.003429-24.868571-60.434286-67.712-60.434286H291.291429c-42.861714 0-61.293714 21.430857-67.712 60.434286z m43.282285 827.574857h503.131429c77.165714 0 121.728-44.580571 121.728-132.864v-493.714286c0-88.283429-45.001143-132.845714-134.582857-132.845714H266.861714c-89.142857 0-134.582857 44.562286-134.582857 132.845714v493.714286c0 88.722286 45.44 132.864 134.582857 132.864z m200.576-69.010286h-54.857143c-24.868571-33.426286 5.558857-122.148571 56.557715-162.432-23.131429-17.133714-55.716571-26.989714-96.859429-26.989714-89.563429 0-154.276571 55.716571-170.989714 115.291429V390.070857c0-44.580571 23.990857-67.712 66.852571-67.712H756.297143c42.422857 0 66.432 23.131429 66.432 67.712v445.293714c-30.848-43.300571-94.72-80.146286-176.566857-80.146285-123.008 0-200.137143 84.845714-200.137143 156.854857 0 20.992 13.275429 31.707429 21.430857 31.707428z m179.126857-240.420571c51.017143 0 94.299429-45.44 94.299429-104.996571 0-58.294857-43.721143-101.997714-94.299429-101.997715-50.998857 0-95.561143 44.982857-95.561142 102.857143 0 58.697143 44.562286 104.137143 95.561142 104.137143z m-273.846857 5.997714c44.562286 0 82.706286-39.862857 82.706286-92.16 0-50.980571-38.582857-88.265143-82.706286-88.265143-44.580571 0-83.145143 38.144-83.145143 88.704 0 51.858286 38.582857 91.721143 83.145143 91.721143z" p-id="10753"></path></svg>