<?xml version="1.0" standalone="no"?><!DOCTYPE svg PUBLIC "-//W3C//DTD SVG 1.1//EN" "http://www.w3.org/Graphics/SVG/1.1/DTD/svg11.dtd"><svg t="1598837260861" class="icon" viewBox="0 0 1024 1024" version="1.1" xmlns="http://www.w3.org/2000/svg" p-id="46497" xmlns:xlink="http://www.w3.org/1999/xlink" width="200" height="200"><defs><style type="text/css"></style></defs><path d="M662.2 721c4.6 17 22.2 27.2 39.2 22.6l234-62.6c17-4.6 27.2-22.2 22.6-39.2L895.2 408c-4.6-17-22.2-27.2-39.2-22.6L622 448c-17 4.6-27.2 22.2-22.6 39.2l62.8 233.8zM0 959.8c0 35.4 28.6 64 64 64s64-28.6 64-64v-149C96 783.4 1 701.6 0 700.6v259.2z m1006.8-212.2c-2.2-8.6-11-13.6-19.6-11.4l-308.2 82.6c-19.6-25.8-48.4-43.8-81.8-49l-118.8-443.2c-2.2-8.6-11-13.6-19.6-11.4l-61.8 16.6c-8.6 2.2-13.6 11-11.4 19.6l25.8 96.4h-78l-66.6-123.6c-22.2-42.2-65.6-68.4-113.4-68.4H96c-53 0-96 43-96 96v206c0 37.4 16.4 72.8 44.8 97.2l152 130.2 28.2 185c2 11.4 20.2 61.4 73.6 52.6 34.8-5.8 58.4-38.8 52.6-73.6l-28.2-185c-5-29.6-20.2-56.6-43-76.2l-88-75.4V456l64 119.8h189.6l57.8 215.6c-32.8 23.2-54.4 61.2-54.4 104.4 0 70.6 57.4 128 128 128 65.4 0 118.6-49 126.4-112.2l308.4-82.6c8.6-2.2 13.6-11 11.4-19.6l-16.4-61.8z m-429.6 180.2c-17.6 0-32-14.4-32-32s14.4-32 32-32 32 14.4 32 32-14.2 32-32 32zM160 192c53 0 96-43 96-96S213.2 0 160 0 64 43 64 96s43 96 96 96z" p-id="46498"></path></svg>