<?xml version="1.0" standalone="no"?><!DOCTYPE svg PUBLIC "-//W3C//DTD SVG 1.1//EN" "http://www.w3.org/Graphics/SVG/1.1/DTD/svg11.dtd"><svg t="1592476891302" class="icon" viewBox="0 0 1024 1024" version="1.1" xmlns="http://www.w3.org/2000/svg" p-id="7345" xmlns:xlink="http://www.w3.org/1999/xlink" width="200" height="200"><defs><style type="text/css"></style></defs><path d="M829.879466 321.668332c0-124.369003-100.822376-225.202082-225.202082-225.202082s-225.202082 100.833079-225.202082 225.202082c0 73.915003 35.769467 139.310408 90.750841 180.377867-127.098271 55.120513-216.083116 181.533792-216.083116 328.903568h0.160546c-0.021406 0.524448-0.160545 1.027489-0.160546 1.551937 0 20.46416 16.77162 37.043126 37.471246 37.043125s37.471246-16.578966 37.471247-37.043125c0-0.524448-0.139139-1.027489-0.160546-1.551937h0.13914c0-156.381713 127.23741-283.629826 283.629826-283.629826v-0.214061c-2.301148 0-4.538077-0.224763-6.817819-0.288981 123.823149-0.652884 224.003345-101.164872 224.003345-225.148567z m-225.202082 150.280996c-82.862721 0-150.280996-67.418275-150.280996-150.280996s67.418275-150.280996 150.280996-150.280996 150.280996 67.418275 150.280995 150.280996-67.418275 150.280996-150.280995 150.280996zM955.21174 830.949767c0-109.812906-49.480026-207.959529-127.237411-273.697431l-0.21406 0.224763a37.471246 37.471246 0 0 0-22.66898-7.716872c-20.699626 0-37.471246 16.578966-37.471246 37.02172 0 10.724418 4.687919 20.314317 12.072998 27.067918l-0.32109 0.374606c61.68146 52.048749 100.918703 129.881054 100.918703 216.714593h0.139139c-0.021406 0.524448-0.160545 1.027489-0.160545 1.551937 0 20.46416 16.77162 37.043126 37.471246 37.043125s37.471246-16.578966 37.471246-37.043125c0-0.524448-0.139139-1.027489-0.160545-1.551937h0.160545z" fill="#3E3A39" p-id="7346"></path><path d="M360.381128 512v-74.921086c-61.970441 0-112.381629-50.421891-112.38163-112.381629s50.411188-112.381629 112.38163-112.38163v-0.663587c17.488722-3.168092 30.77116-18.398478 30.77116-36.796956s-13.282438-33.628865-30.77116-36.796956v-0.663587c-1.509125 0-2.954031 0.192654-4.452454 0.224763-0.749211-0.053515-1.477016-0.224763-2.236929-0.224763-2.301148 0-4.527374 0.278278-6.710789 0.663587-97.161946 6.903443-173.902544 87.711186-173.902544 186.639129 0 57.036353 25.580199 108.036206 65.791417 142.382172-91.264586 44.90984-154.091268 138.796664-154.091268 247.389427a37.460543 37.460543 0 1 0 74.921086 0c0-110.658444 90.023037-200.681481 200.681481-200.681481v-1.787403z" fill="#3E3A39" p-id="7347"></path></svg>