<?xml version="1.0" standalone="no"?><!DOCTYPE svg PUBLIC "-//W3C//DTD SVG 1.1//EN" "http://www.w3.org/Graphics/SVG/1.1/DTD/svg11.dtd"><svg t="1592476879269" class="icon" viewBox="0 0 1024 1024" version="1.1" xmlns="http://www.w3.org/2000/svg" p-id="7222" xmlns:xlink="http://www.w3.org/1999/xlink" width="200" height="200"><defs><style type="text/css"></style></defs><path d="M699.2 609.6l225.6 264c32 38.4 28.8 96-9.6 126.4-16 12.8-38.4 22.4-57.6 22.4H168c-51.2 0-89.6-41.6-89.6-89.6 0-22.4 6.4-41.6 22.4-57.6l225.6-264c25.6 16 54.4 28.8 86.4 38.4L171.2 934.4h299.2V755.2H560v177.6h299.2L616 651.2c25.6-12.8 54.4-25.6 83.2-41.6zM512 3.2c164.8 0 299.2 132.8 299.2 299.2S676.8 600 512 600s-299.2-132.8-299.2-299.2S345.6 3.2 512 3.2z m0 88c-113.6 0-209.6 92.8-209.6 209.6S396.8 512 512 512s209.6-96 209.6-209.6S625.6 91.2 512 91.2z" fill="#888888" p-id="7223"></path></svg>