<?xml version="1.0" standalone="no"?><!DOCTYPE svg PUBLIC "-//W3C//DTD SVG 1.1//EN" "http://www.w3.org/Graphics/SVG/1.1/DTD/svg11.dtd"><svg t="1598680308537" class="icon" viewBox="0 0 1024 1024" version="1.1" xmlns="http://www.w3.org/2000/svg" p-id="8902" xmlns:xlink="http://www.w3.org/1999/xlink" width="200" height="200"><defs><style type="text/css"></style></defs><path d="M823.008 152.992a93.184 93.184 0 0 0-36 11.008l-151.008 80L432 193.984l-12-2.976-12 5.984-68.992 40-40.992 24 37.984 28.992 87.008 66.016-108.992 58.016-117.024-53.024-13.984-5.984-14.016 7.008-56 29.984-36.992 20 28 30.016 172.992 185.984 16 19.008 22.016-12L480 547.008l-32.992 181.984-11.008 58.016 55.008-23.008 81.984-35.008 12-4.992 5.024-12 118.976-288.992 168-90.016c46.272-24.864 64.896-83.744 40-129.984a95.616 95.616 0 0 0-56.992-46.016 99.84 99.84 0 0 0-36.992-4z m5.984 64c4-0.256 8.128-0.128 12 1.024a31.328 31.328 0 0 1 6.016 57.984l-179.008 96.992-10.016 4.992-4 11.008-118.976 286.016-14.016 5.984 34.016-188.992 12-64.992-58.016 31.008-201.984 108.992-127.008-138.016 4.992-3.008 117.024 52.032 14.976 6.976 12.992-8 487.04-256.992a28.352 28.352 0 0 1 11.968-3.008zM428 259.008l123.008 29.984-66.016 34.016-72-55.008zM96 832v64h832v-64z" p-id="8903"></path></svg>