<?xml version="1.0" standalone="no"?><!DOCTYPE svg PUBLIC "-//W3C//DTD SVG 1.1//EN" "http://www.w3.org/Graphics/SVG/1.1/DTD/svg11.dtd"><svg t="1591236258680" class="icon" viewBox="0 0 1024 1024" version="1.1" xmlns="http://www.w3.org/2000/svg" p-id="10976" xmlns:xlink="http://www.w3.org/1999/xlink" width="200" height="200"><defs><style type="text/css"></style></defs><path d="M704 864c-6.4 0-12.8 0-19.2-6.4l-153.6-102.4L454.4 832c-6.4 6.4-25.6 12.8-32 6.4-12.8-6.4-19.2-19.2-19.2-32l0-140.8c0-6.4 0-12.8 6.4-19.2L652.8 384c12.8-12.8 32-12.8 44.8 0 12.8 12.8 12.8 32 0 44.8l-236.8 256 0 51.2 44.8-38.4c12.8-12.8 25.6-12.8 38.4-6.4l140.8 89.6 108.8-531.2L256 512l121.6 76.8C390.4 595.2 396.8 620.8 384 633.6c-6.4 12.8-32 19.2-44.8 12.8L172.8 537.6C166.4 531.2 160 524.8 160 512c0-12.8 6.4-19.2 19.2-25.6l640-320c12.8-6.4 25.6-6.4 32 0 12.8 6.4 12.8 19.2 12.8 32l-128 640c0 12.8-6.4 19.2-19.2 25.6C710.4 864 710.4 864 704 864z" p-id="10977"></path></svg>