<?xml version="1.0" standalone="no"?><!DOCTYPE svg PUBLIC "-//W3C//DTD SVG 1.1//EN" "http://www.w3.org/Graphics/SVG/1.1/DTD/svg11.dtd"><svg t="1591237452430" class="icon" viewBox="0 0 1024 1024" version="1.1" xmlns="http://www.w3.org/2000/svg" p-id="15210" xmlns:xlink="http://www.w3.org/1999/xlink" width="200" height="200"><defs><style type="text/css"></style></defs><path d="M42.666667 512v85.333333h384l-85.333334 384h170.666667l170.666667-384h213.333333c46.933333 0 85.333333-38.4 85.333333-85.333333H42.666667z" opacity=".16" p-id="15211"></path><path d="M896 384h-185.6L550.4 25.6C544 10.666667 529.066667 0 512 0h-170.666667c-12.8 0-25.6 6.4-34.133333 14.933333-8.533333 10.666667-10.666667 23.466667-8.533333 36.266667L373.333333 384h-113.066666l-72.533334-147.2c-6.4-14.933333-21.333333-23.466667-38.4-23.466667H42.666667c-23.466667 0-42.666667 19.2-42.666667 42.666667v341.333333c0 23.466667 19.2 42.666667 42.666667 42.666667h330.666666L298.666667 972.8c-2.133333 12.8 0 25.6 8.533333 36.266667s21.333333 14.933333 34.133333 14.933333h170.666667c17.066667 0 32-10.666667 38.4-25.6L710.4 640H896c70.4 0 128-57.6 128-128s-57.6-128-128-128zM394.666667 85.333333h89.6l132.266666 298.666667h-155.733333L394.666667 85.333333zM896 554.666667H682.666667c-17.066667 0-32 10.666667-38.4 25.6L484.266667 938.666667h-89.6L469.333333 605.866667c2.133333-12.8 0-25.6-8.533333-36.266667s-21.333333-14.933333-34.133333-14.933333H85.333333V298.666667h38.4l72.533334 147.2c6.4 14.933333 21.333333 23.466667 38.4 23.466666h661.333333c23.466667 0 42.666667 19.2 42.666667 42.666667s-19.2 42.666667-42.666667 42.666667z" p-id="15212"></path></svg>