<?xml version="1.0" standalone="no"?><!DOCTYPE svg PUBLIC "-//W3C//DTD SVG 1.1//EN" "http://www.w3.org/Graphics/SVG/1.1/DTD/svg11.dtd"><svg t="1591237308173" class="icon" viewBox="0 0 1024 1024" version="1.1" xmlns="http://www.w3.org/2000/svg" p-id="13189" xmlns:xlink="http://www.w3.org/1999/xlink" width="200" height="200"><defs><style type="text/css"></style></defs><path d="M425.489655 861.431172a41.878069 41.878069 0 0 1-36.510896-22.56331l-75.458207-143.077517-145.33738-65.182897a38.94731 38.94731 0 0 1-22.59862-26.553379c-2.612966-11.652414 0.670897-23.905103 8.968827-33.686069l17.513931-20.585931a20.374069 20.374069 0 0 1 17.443311-7.097379l150.492689 14.441931a20.409379 20.409379 0 0 1 18.290759 22.174896 20.268138 20.268138 0 0 1-22.174897 18.326069l-139.934896-13.453241-8.827586 10.416552 149.221517 66.983724a20.303448 20.303448 0 0 1 9.639724 9.039448l78.706759 149.292138c0.317793 0.600276 0.635586 0.882759 0.741517 0.882759 0 0 0.282483-0.03531 0.812138-0.423725l3.707586-2.612965-5.049379-130.612966a20.374069 20.374069 0 0 1 40.642207-1.553655l5.437793 141.629793a20.374069 20.374069 0 0 1-8.580414 17.37269l-12.676414 8.968828a43.078621 43.078621 0 0 1-24.470069 7.874206z m324.925793-39.830069l-2.224551-0.105931c-18.537931-0.847448-35.486897-12.217379-46.574345-31.179034l-115.182345-197.172966a20.303448 20.303448 0 0 1 7.309241-27.789241 20.409379 20.409379 0 0 1 27.824552 7.238621l115.182345 197.243586c3.954759 6.814897 8.827586 10.840276 13.312 11.052138 4.484414-0.03531 9.745655-3.389793 14.406621-9.886897l5.720275-7.944827-38.488275-327.60938a20.303448 20.303448 0 1 1 40.395034-4.766896l39.371034 335.448276a20.197517 20.197517 0 0 1-3.636965 14.159448l-10.310621 14.37131c-12.32331 17.196138-29.378207 26.941793-47.104 26.941793z m-284.74262-362.778482a20.126897 20.126897 0 0 1-9.18069-2.224552L246.148414 349.890207c-20.585931-11.405241-32.520828-28.530759-33.509517-47.386483-0.918069-18.855724 9.145379-37.075862 27.789241-50.176l12.852965-9.004138a20.762483 20.762483 0 0 1 13.982897-3.566345l338.696828 39.017931a20.303448 20.303448 0 1 1-4.660966 40.395035l-331.034483-38.135173-6.461793 4.625656c-6.850207 4.802207-10.769655 10.310621-10.557793 14.759724 0.247172 4.484414 4.696276 9.569103 11.970207 13.594483l209.672828 106.354758a20.303448 20.303448 0 0 1-9.216 38.452966z" fill="#656565" p-id="13190"></path><path d="M522.345931 627.217655a20.374069 20.374069 0 0 1-14.018207-35.063172l314.368-300.032a50.493793 50.493793 0 0 0 15.960276-36.652138c0-13.771034-5.684966-26.800552-16.030897-36.652138a58.226759 58.226759 0 0 0-79.518896-0.03531L356.599172 587.74069a20.303448 20.303448 0 1 1-28.071724-29.413518L715.034483 189.334069c37.393655-35.698759 98.26869-35.698759 135.662345 0.070621a90.571034 90.571034 0 0 1 0.03531 132.060689l-314.33269 300.102621a20.197517 20.197517 0 0 1-14.053517 5.649655z" fill="#656565" p-id="13191"></path></svg>