<?xml version="1.0" standalone="no"?><!DOCTYPE svg PUBLIC "-//W3C//DTD SVG 1.1//EN" "http://www.w3.org/Graphics/SVG/1.1/DTD/svg11.dtd"><svg t="1591237290441" class="icon" viewBox="0 0 1024 1024" version="1.1" xmlns="http://www.w3.org/2000/svg" p-id="13065" xmlns:xlink="http://www.w3.org/1999/xlink" width="200" height="200"><defs><style type="text/css"></style></defs><path d="M704 983.466667h-6.4c-6.4-2.133333-12.8-8.533333-14.933333-14.933334-32-123.733333-83.2-313.6-102.4-379.733333l-174.933334 128-32 224c-2.133333 10.666667-8.533333 17.066667-19.2 19.2-8.533333 0-19.2-4.266667-21.333333-14.933333l-66.133333-183.466667-189.866667-87.466667c-8.533333-4.266667-14.933333-12.8-12.8-23.466666s10.666667-17.066667 19.2-17.066667l230.4-14.933333 136.533333-157.866667-89.6-34.133333c-10.666667-4.266667-17.066667-17.066667-12.8-27.733334 4.266667-10.666667 17.066667-17.066667 27.733334-12.8l119.466666 44.8c6.4 2.133333 10.666667 8.533333 12.8 14.933334 2.133333 6.4 0 14.933333-4.266666 19.2L341.333333 652.8c-4.266667 4.266667-8.533333 6.4-14.933333 6.4l-155.733333 12.8 113.066666 51.2c10.666667 4.266667 19.2 12.8 23.466667 25.6l36.266667 102.4 21.333333-149.333333c0-6.4 4.266667-10.666667 8.533333-14.933334L576 533.333333c4.266667-2.133333 8.533333-4.266667 12.8-4.266666 19.2 0 25.6 0 125.866667 388.266666l4.266666-4.266666-21.333333-505.6c0-6.4 2.133333-12.8 6.4-17.066667l153.6-147.2c34.133333-32 46.933333-61.866667 51.2-78.933333 2.133333-10.666667 2.133333-17.066667 2.133333-21.333334-14.933333-4.266667-55.466667-4.266667-104.533333 42.666667l-151.466667 145.066667c-4.266667 4.266667-10.666667 6.4-17.066666 6.4L128 285.866667l-6.4 6.4 81.066667 29.866666c10.666667 4.266667 17.066667 17.066667 12.8 27.733334-4.266667 10.666667-17.066667 17.066667-27.733334 12.8l-113.066666-42.666667c-6.4 0-10.666667-6.4-12.8-14.933333-2.133333-6.4 0-14.933333 6.4-19.2L106.666667 249.6c4.266667-4.266667 10.666667-6.4 17.066666-6.4L629.333333 298.666667l145.066667-138.666667c74.666667-72.533333 149.333333-59.733333 166.4-42.666667 8.533333 8.533333 14.933333 29.866667 6.4 61.866667-6.4 23.466667-21.333333 59.733333-61.866667 100.266667l-147.2 140.8 21.333334 505.6c0 6.4-2.133333 12.8-6.4 17.066666l-38.4 36.266667c0 2.133333-6.4 4.266667-10.666667 4.266667z" fill="#666666" p-id="13066"></path><path d="M283.733333 409.6c-17.066667 0-32-14.933333-32-32s14.933333-32 32-32 32 14.933333 32 32c0 19.2-12.8 32-32 32z" fill="#666666" p-id="13067"></path></svg>