<?xml version="1.0" standalone="no"?><!DOCTYPE svg PUBLIC "-//W3C//DTD SVG 1.1//EN" "http://www.w3.org/Graphics/SVG/1.1/DTD/svg11.dtd"><svg t="1598680303351" class="icon" viewBox="0 0 1024 1024" version="1.1" xmlns="http://www.w3.org/2000/svg" p-id="8772" xmlns:xlink="http://www.w3.org/1999/xlink" width="200" height="200"><defs><style type="text/css"></style></defs><path d="M108.992 127.008L107.008 168 96 448.992l-0.992 24.992 24 7.04 204.992 61.984-174.016 120.992-48.96 34.016 54.976 21.984 91.008 36 12 4.992 12-4.992 320-132.992 204.992 61.984c54.016 16.256 111.744-15.104 128-68.992 16.256-54.016-15.136-111.744-68.992-128L672.96 432 552 232l-7.008-11.008-12-4L448 194.016l-47.008-12 7.008 48 16.992 124.992-136-42.016-52-133.984-5.984-15.008-15.008-4.992-68-20z m60 84.992l14.016 4 50.976 134.016 5.024 14.976 14.976 4 582.016 180a38.08 38.08 0 0 1 26.016 48 38.08 38.08 0 0 1-48 26.016l-216-65.024-11.008-2.976-10.016 4-317.984 132.992-24-10.016 180-124 55.008-37.984-64-19.008-245.024-73.984z m308 56.992l26.016 7.008 77.984 127.008-89.984-27.008zM656 672a48 48 0 1 0 0 96 48 48 0 0 0 0-96zM96 832v64h832v-64z" p-id="8773"></path></svg>