<?xml version="1.0" standalone="no"?><!DOCTYPE svg PUBLIC "-//W3C//DTD SVG 1.1//EN" "http://www.w3.org/Graphics/SVG/1.1/DTD/svg11.dtd"><svg t="1598836707406" class="icon" viewBox="0 0 1024 1024" version="1.1" xmlns="http://www.w3.org/2000/svg" p-id="24690" xmlns:xlink="http://www.w3.org/1999/xlink" width="200" height="200"><defs><style type="text/css"></style></defs><path d="M232.137143 85.138286h560.146286c-2.56-35.986286-23.149714-55.277714-62.573715-55.277715H294.710857c-39.424 0-59.995429 19.273143-62.573714 55.277715z m-84.004572 118.710857h728.576c-6.418286-38.985143-25.289143-60.416-68.132571-60.416H215.862857c-42.861714 0-61.293714 21.430857-67.730286 60.416z m39.003429 790.308571H837.302857c89.142857 0 134.144-44.580571 134.144-132.864V406.125714c0-88.283429-44.982857-132.864-134.144-132.864H187.136c-89.563429 0-134.582857 44.141714-134.582857 132.864V861.257143c0 88.301714 45.019429 132.864 134.582857 132.864z m1.28-69.010285c-42.843429 0-66.852571-23.149714-66.852571-67.712V409.563429c0-44.562286 24.009143-67.291429 66.870857-67.291429h647.570285c42.422857 0 66.413714 22.729143 66.413715 67.291429v447.872c0 44.562286-23.990857 67.712-66.413715 67.712h-53.156571c-35.126857-78.866286-125.988571-165.010286-271.268571-165.010286-144.859429 0-236.16 86.144-270.866286 165.010286z m323.145143-224.585143c72.429714 0.438857 130.724571-65.554286 130.724571-143.561143 0-76.708571-58.294857-139.282286-130.706285-139.282286-72.448 0-130.724571 62.573714-130.724572 139.282286 0.438857 78.006857 58.294857 142.72 130.724572 143.579428z" p-id="24691"></path></svg>