<?xml version="1.0" standalone="no"?><!DOCTYPE svg PUBLIC "-//W3C//DTD SVG 1.1//EN" "http://www.w3.org/Graphics/SVG/1.1/DTD/svg11.dtd"><svg t="1599119708091" class="icon" viewBox="0 0 1024 1024" version="1.1" xmlns="http://www.w3.org/2000/svg" p-id="20732" xmlns:xlink="http://www.w3.org/1999/xlink" width="200" height="200"><defs><style type="text/css"></style></defs><path d="M512.512 539.35001059c-4.608 0-9.216-1.024-13.824-3.072L65.536 317.65401059c-15.36-7.168-22.016-25.088-14.848-40.448 3.072-6.656 8.192-11.776 14.848-14.848L499.2 43.73401059c8.704-4.096 18.432-4.096 27.136 0l433.664 218.624c10.24 5.12 16.896 14.848 17.408 26.112 0 11.776-6.656 22.528-16.896 27.648l-433.664 220.16c-4.608 1.536-9.216 2.56-14.336 3.072z m-364.544-250.88l346.112 176.128c11.776 6.144 25.6 6.144 37.376 0l346.112-176.128-347.136-176.64c-11.264-5.632-24.576-5.632-35.84 0L147.968 288.47001059z" p-id="20733"></path><path d="M512.512 753.87801059c-4.608 1.024-9.216 1.024-13.824 0l-433.664-218.112c-15.36-7.68-22.016-26.112-14.336-41.472s26.112-22.016 41.472-14.336l401.408 199.68c11.776 5.632 25.088 5.632 36.864 0L931.84 476.88601059c15.36-7.68 33.792-1.024 41.472 14.336s1.024 33.792-14.336 41.472l-433.664 218.112c-3.072 2.56-7.68 3.584-12.8 3.072z" p-id="20734"></path><path d="M512.512 973.01401059c-4.608 0-9.216-1.024-13.824-3.072l-433.664-218.624c-17.92-7.68-25.088-29.696-13.312-46.592 3.584-5.12 9.216-9.216 14.848-11.264 9.216-3.072 18.432-2.048 26.112 2.56L491.52 897.23801059c13.312 6.656 28.672 6.656 41.984 0l398.848-200.704c14.848-7.68 33.28-2.048 40.96 12.8 0 0.512 0.512 0.512 0.512 1.024 7.68 15.36 1.536 33.792-13.824 41.472l-433.664 218.112c-4.096 1.536-8.704 2.56-13.824 3.072z" p-id="20735"></path></svg>