<?xml version="1.0" standalone="no"?><!DOCTYPE svg PUBLIC "-//W3C//DTD SVG 1.1//EN" "http://www.w3.org/Graphics/SVG/1.1/DTD/svg11.dtd"><svg t="1599120913860" class="icon" viewBox="0 0 1024 1024" version="1.1" xmlns="http://www.w3.org/2000/svg" p-id="4752" data-spm-anchor-id="a313x.7781069.0.i2" xmlns:xlink="http://www.w3.org/1999/xlink" width="200" height="200"><defs><style type="text/css"></style></defs><path d="M850.261333 675.157333a17.066667 17.066667 0 0 0-17.066666 17.066667v97.792a5.973333 5.973333 0 0 1-5.973334 5.802667H269.482667v-17.066667a17.066667 17.066667 0 1 0-35.157334 0v17.066667H120.490667l25.770666-34.133334a17.066667 17.066667 0 0 0 0-21.162666l-38.912-51.2 38.912-51.2a17.066667 17.066667 0 0 0 0-20.992L107.349333 563.2l38.912-51.2a17.066667 17.066667 0 0 0 0-20.992l-25.770666-34.133333h113.834666v17.066666a17.066667 17.066667 0 1 0 35.157334 0v-17.066666h158.890666a17.066667 17.066667 0 0 0 17.066667-17.066667 17.066667 17.066667 0 0 0-17.066667-17.066667H192.682667l15.36-72.192 290.133333 61.610667a17.066667 17.066667 0 0 0 7.338667-34.133333l-295.253334-62.805334a29.354667 29.354667 0 0 0-34.133333 22.528l-18.090667 85.333334H85.333333a17.066667 17.066667 0 0 0-15.701333 9.728 17.066667 17.066667 0 0 0 1.706667 18.432l38.912 51.2-38.912 51.2a17.066667 17.066667 0 0 0 0 21.162666l38.912 51.541334-38.912 51.2a17.066667 17.066667 0 0 0 0 21.162666L110.250667 750.933333l-38.912 51.2a17.066667 17.066667 0 0 0-1.706667 18.261334 17.066667 17.066667 0 0 0 15.701333 9.898666h741.376a41.130667 41.130667 0 0 0 41.130667-41.130666v-96.426667a17.066667 17.066667 0 0 0-17.578667-17.578667z" fill="#515151" p-id="4753" data-spm-anchor-id="a313x.7781069.0.i3" class="selected"></path><path d="M251.904 639.146667a17.066667 17.066667 0 0 0-17.066667 17.066666v61.098667a17.066667 17.066667 0 0 0 35.157334 0v-60.586667a17.066667 17.066667 0 0 0-18.090667-17.578666zM269.482667 534.698667a17.066667 17.066667 0 0 0-35.157334 0v61.098666a17.066667 17.066667 0 0 0 35.157334 0zM367.274667 547.669333h72.362666a17.066667 17.066667 0 0 0 0-35.157333h-72.362666a17.066667 17.066667 0 1 0 0 35.157333zM613.205333 654.677333a17.066667 17.066667 0 0 0-17.066666-17.066666H367.274667a17.066667 17.066667 0 1 0 0 35.157333H595.626667a17.066667 17.066667 0 0 0 17.578666-18.090667zM367.274667 704.853333a17.066667 17.066667 0 1 0 0 35.157334h170.666666a17.066667 17.066667 0 0 0 0-35.157334zM955.733333 570.368L872.448 358.4 921.6 310.101333a76.629333 76.629333 0 0 0 22.016-47.786666 51.2 51.2 0 0 0-15.018667-41.984 52.906667 52.906667 0 0 0-42.154666-15.530667 76.970667 76.970667 0 0 0-47.445334 22.016l-49.493333 49.493333-211.114667-82.602666a17.066667 17.066667 0 0 0-18.944 3.925333l-38.570666 38.570667a17.066667 17.066667 0 0 0-5.12 13.482666 18.090667 18.090667 0 0 0 5.12 11.434667 6.656 6.656 0 0 0 1.706666 1.365333l42.154667 32.768-5.290667 5.290667a17.066667 17.066667 0 0 0 24.917334 24.917333l8.362666-8.362666 29.866667 23.210666-5.461333 5.461334a17.066667 17.066667 0 0 0 24.917333 24.917333l8.533333-8.533333 29.866667 23.210666L622.762667 443.733333l-9.045334 9.728-55.808-21.504a17.066667 17.066667 0 0 0-18.773333 4.096L514.389333 460.8a17.066667 17.066667 0 0 0 0 24.917333l52.394667 52.394667c-0.853333 3.072-1.877333 6.144-2.56 9.216a31.232 31.232 0 0 0 37.888 37.888l9.045333-2.56 52.565334 52.394667a17.066667 17.066667 0 0 0 24.746666 0l24.917334-24.917334a17.066667 17.066667 0 0 0 3.925333-18.773333l-21.333333-55.808c3.242667-2.901333 6.485333-5.802667 9.557333-8.874667l57.685333-57.856 23.381334 30.037334-8.533334 8.362666a17.066667 17.066667 0 0 0 0 24.917334 17.066667 17.066667 0 0 0 24.917334 0l5.290666-5.290667 23.381334 29.866667-8.362667 8.362666a17.066667 17.066667 0 0 0 24.917333 24.917334l5.12-5.290667 32.768 42.154667 1.536 1.706666a18.602667 18.602667 0 0 0 11.264 5.12 17.066667 17.066667 0 0 0 13.653334-5.12l38.570666-38.741333a17.066667 17.066667 0 0 0 4.608-19.456zM580.266667 501.76l-29.184-29.184 4.437333-4.266667 35.84 13.653334A225.28 225.28 0 0 0 580.266667 501.76z m-20.48-254.805333l17.066666-17.066667 186.197334 72.874667-56.832 56.832zM676.010667 597.333333l-29.013334-29.013333c6.656-3.413333 13.312-7.168 19.626667-11.093333l13.824 35.84z m4.608-95.914666a188.928 188.928 0 0 1-80.554667 47.616A187.733333 187.733333 0 0 1 648.533333 467.968l215.381334-216.234667a41.301333 41.301333 0 0 1 25.6-11.946666 17.066667 17.066667 0 0 1 13.824 5.12 17.066667 17.066667 0 0 1 4.778666 15.018666 39.765333 39.765333 0 0 1-11.776 25.088z m221.013333 87.381333L788.309333 443.733333l57.002667-56.832 72.704 186.197334z" fill="#515151" p-id="4754" data-spm-anchor-id="a313x.7781069.0.i6" class="selected"></path></svg>