<?xml version="1.0" standalone="no"?><!DOCTYPE svg PUBLIC "-//W3C//DTD SVG 1.1//EN" "http://www.w3.org/Graphics/SVG/1.1/DTD/svg11.dtd"><svg t="1599120298247" class="icon" viewBox="0 0 1024 1024" version="1.1" xmlns="http://www.w3.org/2000/svg" p-id="31436" xmlns:xlink="http://www.w3.org/1999/xlink" width="200" height="200"><defs><style type="text/css"></style></defs><path d="M512 1024C229.233778 1024 0 794.766222 0 512S229.233778 0 512 0s512 229.233778 512 512-229.233778 512-512 512z m162.858667-666.723556c-8.376889-9.756444-28.814222-9.528889-40.220445-0.540444l-37.319111 28.017778a3.626667 3.626667 0 0 1-5.575111-0.071111s-19.413333-17.009778-33.649778-31.488c-16.540444-16.796444-39.623111-29.297778-65.735111-29.297778H428.088889c-33.92 0-55.893333 17.038222-77.909333 46.961778a21.376 21.376 0 0 0-1.720889 2.773333l-48.867556 84.622222c-5.475556 11.121778 0.199111 28.970667 12.387556 33.848889 12.472889 4.977778 29.098667-1.806222 35.598222-12.472889l50.204444-86.115555a1.607111 1.607111 0 0 1 2.872889 1.336889l-12.956444 81.308444a19.626667 19.626667 0 0 0 19.427555 22.755556l114.176-0.398223a19.626667 19.626667 0 0 0 19.285334-22.897777l-13.610667-80.540445a1.607111 1.607111 0 0 1 2.801778-1.365333l44.088889 43.562666c3.029333 3.527111 6.926222 6.200889 11.320889 7.736889l0.142222 0.042667c4.622222 1.820444 9.699556 2.176 14.535111 0.995556l0.170667-0.028445c1.578667-0.355556 3.128889-0.853333 4.608-1.507555 0.426667-0.170667 0.853333-0.384 1.28-0.568889 1.080889-0.540444 2.133333-1.152 3.128888-1.848889 0.568889-0.369778 1.152-0.753778 1.706667-1.194667 0.199111-0.142222 0.426667-0.256 0.64-0.426667 0.497778-0.426667 0.867556-0.938667 1.336889-1.379555 0.568889-0.568889 1.223111-1.024 1.763556-1.649778l53.205333-42.055111c13.269333-10.908444 13.824-30.350222 7.168-38.115556z m-51.2 115.072a14.179556 14.179556 0 0 0-14.193778 14.179556 12.416 12.416 0 0 0 12.416 12.430222h98.887111a12.416 12.416 0 0 0 12.416-12.430222 14.179556 14.179556 0 0 0-14.179556-14.179556H623.644444z m112.142222 51.797334H305.749333a35.470222 35.470222 0 0 0-35.470222 35.470222v172.913778A35.470222 35.470222 0 0 0 305.749333 768h430.051556a35.470222 35.470222 0 0 0 35.470222-35.470222V559.616a35.470222 35.470222 0 0 0-35.470222-35.470222z m-109.44 138.737778c-14.506667 4.266667-161.877333 45.809778-161.877333 45.809777s-40.817778 13.312-70.997334-22.556444l33.507556-13.568c5.831111 1.92 11.235556 1.763556 18.446222-0.483556l38.087111-9.201777-57.144889-82.432s-11.576889-17.891556 28.558222-9.159112c0 0 72.604444 54.158222 85.688889 64.099556 0 0 6.698667 3.726222 19.057778 0l57.130667-18.318222s38.698667-11.52 47.601778 9.159111c9.386667 21.688889-23.608889 32.384-38.058667 36.650667z m-239.36 12.672C372.536889 658.872889 369.777778 649.059556 369.777778 649.059556s2.986667-20.394667 27.676444 0c7.210667 5.973333 14.862222 10.055111 19.726222 13.397333l-30.179555 13.098667z m17.152-419.84a56.604444 56.604444 0 1 0 113.237333 0 56.604444 56.604444 0 0 0-113.237333 0z" fill="#515151" p-id="31437"></path></svg>